<svg width="505" height="490" viewBox="0 0 505 490" fill="none" xmlns="http://www.w3.org/2000/svg">
<rect width="505" height="490" rx="21" fill="#F3F4F6"/>
<rect x="202" y="205" width="263" height="243" fill="#D9D9D9"/>
<path d="M74.834 92.585C71.87 92.585 69.257 92.013 66.995 90.869C64.759 89.725 63.03 88.087 61.808 85.955C60.586 83.797 59.975 81.275 59.975 78.389C59.975 75.503 60.586 72.994 61.808 70.862C63.03 68.704 64.759 67.053 66.995 65.909C69.257 64.739 71.87 64.154 74.834 64.154C76.784 64.154 78.526 64.349 80.06 64.739C81.594 65.129 83.011 65.74 84.311 66.572V73.124C83.167 72.214 81.867 71.551 80.411 71.135C78.981 70.719 77.33 70.511 75.458 70.511C72.78 70.511 70.713 71.213 69.257 72.617C67.801 73.995 67.073 75.919 67.073 78.389C67.073 80.859 67.801 82.796 69.257 84.2C70.739 85.604 72.806 86.306 75.458 86.306C77.33 86.306 79.007 86.085 80.489 85.643C81.971 85.201 83.349 84.499 84.623 83.537V90.05C82.153 91.74 78.89 92.585 74.834 92.585ZM96.3327 92.585C94.0187 92.585 91.9907 92.169 90.2487 91.337C88.5067 90.479 87.1547 89.309 86.1927 87.827C85.2567 86.319 84.7887 84.59 84.7887 82.64C84.7887 80.69 85.2567 78.974 86.1927 77.492C87.1547 75.984 88.5067 74.814 90.2487 73.982C91.9907 73.124 94.0187 72.695 96.3327 72.695C98.6468 72.695 100.675 73.124 102.417 73.982C104.159 74.814 105.498 75.984 106.434 77.492C107.396 78.974 107.877 80.69 107.877 82.64C107.877 84.59 107.396 86.319 106.434 87.827C105.498 89.309 104.159 90.479 102.417 91.337C100.675 92.169 98.6468 92.585 96.3327 92.585ZM96.3327 87.242C97.7107 87.242 98.8028 86.839 99.6088 86.033C100.441 85.201 100.857 84.07 100.857 82.64C100.857 81.21 100.441 80.092 99.6088 79.286C98.8028 78.454 97.7107 78.038 96.3327 78.038C94.9547 78.038 93.8497 78.454 93.0177 79.286C92.2117 80.092 91.8087 81.21 91.8087 82.64C91.8087 84.07 92.2117 85.201 93.0177 86.033C93.8497 86.839 94.9547 87.242 96.3327 87.242ZM109.811 73.28H116.441V75.347C117.247 74.463 118.222 73.8 119.366 73.358C120.51 72.916 121.706 72.695 122.954 72.695C125.58 72.695 127.517 73.384 128.765 74.762C130.039 76.114 130.676 77.96 130.676 80.3V92H123.812V81.197C123.812 79.091 122.85 78.038 120.926 78.038C120.042 78.038 119.236 78.246 118.508 78.662C117.78 79.052 117.169 79.663 116.675 80.495V92H109.811V73.28ZM141.328 92.585C139.014 92.585 137.259 91.948 136.063 90.674C134.893 89.374 134.308 87.606 134.308 85.37V78.038H131.656V73.28H134.308V67.664H141.172V73.28H145.462V78.038H141.172V84.434C141.172 85.448 141.354 86.176 141.718 86.618C142.108 87.06 142.784 87.281 143.746 87.281C144.604 87.281 145.462 87.047 146.32 86.579V91.688C145.644 92 144.916 92.221 144.136 92.351C143.382 92.507 142.446 92.585 141.328 92.585ZM147.48 73.28H154.11V75.62C154.838 74.788 155.865 74.151 157.191 73.709C158.517 73.241 159.986 73.007 161.598 73.007V78.272C159.882 78.272 158.361 78.519 157.035 79.013C155.735 79.507 154.838 80.248 154.344 81.236V92H147.48V73.28ZM172.965 92.585C170.651 92.585 168.623 92.169 166.881 91.337C165.139 90.479 163.787 89.309 162.825 87.827C161.889 86.319 161.421 84.59 161.421 82.64C161.421 80.69 161.889 78.974 162.825 77.492C163.787 75.984 165.139 74.814 166.881 73.982C168.623 73.124 170.651 72.695 172.965 72.695C175.279 72.695 177.307 73.124 179.049 73.982C180.791 74.814 182.13 75.984 183.066 77.492C184.028 78.974 184.509 80.69 184.509 82.64C184.509 84.59 184.028 86.319 183.066 87.827C182.13 89.309 180.791 90.479 179.049 91.337C177.307 92.169 175.279 92.585 172.965 92.585ZM172.965 87.242C174.343 87.242 175.435 86.839 176.241 86.033C177.073 85.201 177.489 84.07 177.489 82.64C177.489 81.21 177.073 80.092 176.241 79.286C175.435 78.454 174.343 78.038 172.965 78.038C171.587 78.038 170.482 78.454 169.65 79.286C168.844 80.092 168.441 81.21 168.441 82.64C168.441 84.07 168.844 85.201 169.65 86.033C170.482 86.839 171.587 87.242 172.965 87.242ZM186.443 63.179H193.307V92H186.443V63.179ZM217.778 81.626L207.716 64.739H215.087L221.249 75.308L227.684 64.739H235.016L224.681 81.626V92H217.778V81.626ZM241.294 92.585C238.98 92.585 236.952 92.169 235.21 91.337C233.468 90.479 232.116 89.309 231.154 87.827C230.218 86.319 229.75 84.59 229.75 82.64C229.75 80.69 230.218 78.974 231.154 77.492C232.116 75.984 233.468 74.814 235.21 73.982C236.952 73.124 238.98 72.695 241.294 72.695C243.608 72.695 245.636 73.124 247.378 73.982C249.12 74.814 250.459 75.984 251.395 77.492C252.357 78.974 252.838 80.69 252.838 82.64C252.838 84.59 252.357 86.319 251.395 87.827C250.459 89.309 249.12 90.479 247.378 91.337C245.636 92.169 243.608 92.585 241.294 92.585ZM241.294 87.242C242.672 87.242 243.764 86.839 244.57 86.033C245.402 85.201 245.818 84.07 245.818 82.64C245.818 81.21 245.402 80.092 244.57 79.286C243.764 78.454 242.672 78.038 241.294 78.038C239.916 78.038 238.811 78.454 237.979 79.286C237.173 80.092 236.77 81.21 236.77 82.64C236.77 84.07 237.173 85.201 237.979 86.033C238.811 86.839 239.916 87.242 241.294 87.242ZM262.299 92.585C259.725 92.585 257.788 91.87 256.488 90.44C255.214 89.01 254.577 87.125 254.577 84.785V73.28H261.441V84.005C261.441 86.163 262.416 87.242 264.366 87.242C265.25 87.242 266.056 87.034 266.784 86.618C267.512 86.202 268.11 85.591 268.578 84.785V73.28H275.442V92H268.812V89.972C268.006 90.83 267.031 91.48 265.887 91.922C264.743 92.364 263.547 92.585 262.299 92.585ZM278.177 73.28H284.807V75.62C285.535 74.788 286.562 74.151 287.888 73.709C289.214 73.241 290.683 73.007 292.295 73.007V78.272C290.579 78.272 289.058 78.519 287.732 79.013C286.432 79.507 285.535 80.248 285.041 81.236V92H278.177V73.28ZM60.755 106.739H70.544C73.534 106.739 76.147 107.285 78.383 108.377C80.619 109.469 82.335 111.042 83.531 113.096C84.753 115.124 85.364 117.503 85.364 120.233C85.364 124.757 84.038 128.189 81.386 130.529C78.734 132.843 75.055 134 70.349 134H60.755V106.739ZM70.934 128.189C73.3 128.189 75.107 127.474 76.355 126.044C77.629 124.614 78.266 122.677 78.266 120.233C78.266 117.997 77.629 116.164 76.355 114.734C75.107 113.278 73.378 112.55 71.168 112.55H67.658V128.189H70.934ZM93.199 134.585C90.859 134.585 88.961 134.026 87.505 132.908C86.075 131.764 85.36 130.178 85.36 128.15C85.36 126.044 86.049 124.432 87.427 123.314C88.831 122.17 90.833 121.598 93.433 121.598C94.447 121.598 95.461 121.715 96.475 121.949C97.489 122.157 98.36 122.443 99.088 122.807V122.417C99.088 120.415 97.45 119.414 94.174 119.414C91.886 119.414 89.793 119.856 87.895 120.74V116.021C88.727 115.631 89.819 115.319 91.171 115.085C92.523 114.825 93.927 114.695 95.383 114.695C98.867 114.695 101.493 115.397 103.261 116.801C105.055 118.179 105.952 120.116 105.952 122.612V134H99.517V132.401C98.815 133.077 97.931 133.61 96.865 134C95.799 134.39 94.577 134.585 93.199 134.585ZM95.227 130.373C96.033 130.373 96.787 130.217 97.489 129.905C98.191 129.567 98.724 129.138 99.088 128.618V126.98C97.97 126.226 96.696 125.849 95.266 125.849C94.356 125.849 93.654 126.044 93.16 126.434C92.666 126.824 92.419 127.396 92.419 128.15C92.419 128.852 92.653 129.398 93.121 129.788C93.615 130.178 94.317 130.373 95.227 130.373ZM112.144 112.784C111.104 112.784 110.233 112.446 109.531 111.77C108.829 111.094 108.478 110.236 108.478 109.196C108.478 108.182 108.829 107.337 109.531 106.661C110.233 105.959 111.104 105.608 112.144 105.608C113.158 105.608 114.016 105.959 114.718 106.661C115.446 107.337 115.81 108.182 115.81 109.196C115.81 110.21 115.446 111.068 114.718 111.77C114.016 112.446 113.158 112.784 112.144 112.784ZM108.712 115.28H115.576V134H108.712V115.28ZM118.553 105.179H125.417V134H118.553V105.179ZM133.904 141.722C133.072 141.722 132.201 141.657 131.291 141.527C130.381 141.423 129.705 141.267 129.263 141.059V135.95C130.017 136.262 130.875 136.418 131.837 136.418C132.695 136.418 133.358 136.223 133.826 135.833C134.32 135.469 134.71 134.884 134.996 134.078L135.464 132.83L127.352 115.28H134.216L139.091 127.448L143.693 115.28H150.557L142.835 134.858C141.925 137.198 140.755 138.927 139.325 140.045C137.921 141.163 136.114 141.722 133.904 141.722ZM174.341 106.739H181.127L192.008 134H184.949L182.765 128.384H172.703L170.519 134H163.421L174.341 106.739ZM181.049 123.08L177.734 113.915L174.38 123.08H181.049ZM202.588 134.585C199.156 134.585 196.439 133.727 194.437 132.011C192.435 130.295 191.434 127.851 191.434 124.679C191.434 121.507 192.435 119.05 194.437 117.308C196.465 115.566 199.195 114.695 202.627 114.695C204.161 114.695 205.591 114.851 206.917 115.163C208.269 115.449 209.387 115.865 210.271 116.411V121.754C208.685 120.61 206.592 120.038 203.992 120.038C202.328 120.038 200.989 120.428 199.975 121.208C198.987 121.962 198.493 123.119 198.493 124.679C198.493 126.265 198.987 127.435 199.975 128.189C200.963 128.917 202.289 129.281 203.953 129.281C206.475 129.281 208.659 128.683 210.505 127.487V132.791C208.529 133.987 205.89 134.585 202.588 134.585ZM220.569 134.585C218.255 134.585 216.5 133.948 215.304 132.674C214.134 131.374 213.549 129.606 213.549 127.37V120.038H210.897V115.28H213.549V109.664H220.413V115.28H224.703V120.038H220.413V126.434C220.413 127.448 220.595 128.176 220.959 128.618C221.349 129.06 222.025 129.281 222.987 129.281C223.845 129.281 224.703 129.047 225.561 128.579V133.688C224.885 134 224.157 134.221 223.377 134.351C222.623 134.507 221.687 134.585 220.569 134.585ZM230.387 112.784C229.347 112.784 228.476 112.446 227.774 111.77C227.072 111.094 226.721 110.236 226.721 109.196C226.721 108.182 227.072 107.337 227.774 106.661C228.476 105.959 229.347 105.608 230.387 105.608C231.401 105.608 232.259 105.959 232.961 106.661C233.689 107.337 234.053 108.182 234.053 109.196C234.053 110.21 233.689 111.068 232.961 111.77C232.259 112.446 231.401 112.784 230.387 112.784ZM226.955 115.28H233.819V134H226.955V115.28ZM236.016 115.28H242.88L247.131 126.161L251.343 115.28H258.207L250.368 134H243.855L236.016 115.28ZM263.828 112.784C262.788 112.784 261.917 112.446 261.215 111.77C260.513 111.094 260.162 110.236 260.162 109.196C260.162 108.182 260.513 107.337 261.215 106.661C261.917 105.959 262.788 105.608 263.828 105.608C264.842 105.608 265.7 105.959 266.402 106.661C267.13 107.337 267.494 108.182 267.494 109.196C267.494 110.21 267.13 111.068 266.402 111.77C265.7 112.446 264.842 112.784 263.828 112.784ZM260.396 115.28H267.26V134H260.396V115.28ZM278.349 134.585C276.035 134.585 274.28 133.948 273.084 132.674C271.914 131.374 271.329 129.606 271.329 127.37V120.038H268.677V115.28H271.329V109.664H278.193V115.28H282.483V120.038H278.193V126.434C278.193 127.448 278.375 128.176 278.739 128.618C279.129 129.06 279.805 129.281 280.767 129.281C281.625 129.281 282.483 129.047 283.341 128.579V133.688C282.665 134 281.937 134.221 281.157 134.351C280.403 134.507 279.467 134.585 278.349 134.585ZM288.711 141.722C287.879 141.722 287.008 141.657 286.098 141.527C285.188 141.423 284.512 141.267 284.07 141.059V135.95C284.824 136.262 285.682 136.418 286.644 136.418C287.502 136.418 288.165 136.223 288.633 135.833C289.127 135.469 289.517 134.884 289.803 134.078L290.271 132.83L282.159 115.28H289.023L293.898 127.448L298.5 115.28H305.364L297.642 134.858C296.732 137.198 295.562 138.927 294.132 140.045C292.728 141.163 290.921 141.722 288.711 141.722ZM74.639 176.585C71.883 176.585 69.387 175.987 67.151 174.791C64.941 173.595 63.186 171.931 61.886 169.799C60.612 167.641 59.975 165.171 59.975 162.389C59.975 159.607 60.612 157.137 61.886 154.979C63.186 152.821 64.941 151.144 67.151 149.948C69.387 148.752 71.883 148.154 74.639 148.154C77.369 148.154 79.839 148.752 82.049 149.948C84.285 151.144 86.04 152.821 87.314 154.979C88.588 157.137 89.225 159.607 89.225 162.389C89.225 165.171 88.588 167.641 87.314 169.799C86.04 171.931 84.285 173.595 82.049 174.791C79.839 175.987 77.369 176.585 74.639 176.585ZM74.639 170.111C76.017 170.111 77.278 169.799 78.422 169.175C79.566 168.551 80.476 167.654 81.152 166.484C81.828 165.314 82.166 163.949 82.166 162.389C82.166 160.829 81.828 159.477 81.152 158.333C80.502 157.163 79.605 156.266 78.461 155.642C77.317 154.992 76.043 154.667 74.639 154.667C73.209 154.667 71.922 154.992 70.778 155.642C69.634 156.266 68.724 157.163 68.048 158.333C67.398 159.477 67.073 160.829 67.073 162.389C67.073 163.949 67.398 165.314 68.048 166.484C68.724 167.654 69.634 168.551 70.778 169.175C71.948 169.799 73.235 170.111 74.639 170.111ZM91.1674 157.28H97.7974V159.347C98.6034 158.463 99.5784 157.8 100.722 157.358C101.866 156.916 103.062 156.695 104.31 156.695C106.936 156.695 108.873 157.384 110.121 158.762C111.395 160.114 112.032 161.96 112.032 164.3V176H105.168V165.197C105.168 163.091 104.206 162.038 102.282 162.038C101.398 162.038 100.592 162.246 99.8644 162.662C99.1364 163.052 98.5254 163.663 98.0314 164.495V176H91.1674V157.28ZM136.328 165.626L126.266 148.739H133.637L139.799 159.308L146.234 148.739H153.566L143.231 165.626V176H136.328V165.626ZM159.843 176.585C157.529 176.585 155.501 176.169 153.759 175.337C152.017 174.479 150.665 173.309 149.703 171.827C148.767 170.319 148.299 168.59 148.299 166.64C148.299 164.69 148.767 162.974 149.703 161.492C150.665 159.984 152.017 158.814 153.759 157.982C155.501 157.124 157.529 156.695 159.843 156.695C162.157 156.695 164.185 157.124 165.927 157.982C167.669 158.814 169.008 159.984 169.944 161.492C170.906 162.974 171.387 164.69 171.387 166.64C171.387 168.59 170.906 170.319 169.944 171.827C169.008 173.309 167.669 174.479 165.927 175.337C164.185 176.169 162.157 176.585 159.843 176.585ZM159.843 171.242C161.221 171.242 162.313 170.839 163.119 170.033C163.951 169.201 164.367 168.07 164.367 166.64C164.367 165.21 163.951 164.092 163.119 163.286C162.313 162.454 161.221 162.038 159.843 162.038C158.465 162.038 157.36 162.454 156.528 163.286C155.722 164.092 155.319 165.21 155.319 166.64C155.319 168.07 155.722 169.201 156.528 170.033C157.36 170.839 158.465 171.242 159.843 171.242ZM180.849 176.585C178.275 176.585 176.338 175.87 175.038 174.44C173.764 173.01 173.127 171.125 173.127 168.785V157.28H179.991V168.005C179.991 170.163 180.966 171.242 182.916 171.242C183.8 171.242 184.606 171.034 185.334 170.618C186.062 170.202 186.66 169.591 187.128 168.785V157.28H193.992V176H187.362V173.972C186.556 174.83 185.581 175.48 184.437 175.922C183.293 176.364 182.097 176.585 180.849 176.585ZM196.726 157.28H203.356V159.62C204.084 158.788 205.111 158.151 206.437 157.709C207.763 157.241 209.232 157.007 210.844 157.007V162.272C209.128 162.272 207.607 162.519 206.281 163.013C204.981 163.507 204.084 164.248 203.59 165.236V176H196.726V157.28ZM219.52 176.585C218.012 176.585 216.439 176.429 214.801 176.117C213.163 175.831 211.863 175.415 210.901 174.869V169.838C211.967 170.462 213.241 170.982 214.723 171.398C216.231 171.788 217.609 171.983 218.857 171.983C219.767 171.983 220.43 171.918 220.846 171.788C221.262 171.658 221.47 171.398 221.47 171.008C221.47 170.696 221.327 170.449 221.041 170.267C220.781 170.059 220.287 169.851 219.559 169.643C218.857 169.409 218.038 169.162 217.102 168.902C215.516 168.434 214.268 167.953 213.358 167.459C212.448 166.965 211.772 166.341 211.33 165.587C210.888 164.833 210.667 163.884 210.667 162.74C210.667 160.712 211.46 159.204 213.046 158.216C214.658 157.202 216.855 156.695 219.637 156.695C220.989 156.695 222.406 156.838 223.888 157.124C225.396 157.41 226.527 157.787 227.281 158.255V163.208C226.501 162.688 225.461 162.259 224.161 161.921C222.887 161.583 221.691 161.414 220.573 161.414C219.689 161.414 219 161.505 218.506 161.687C218.012 161.843 217.765 162.129 217.765 162.545C217.765 162.935 218.012 163.234 218.506 163.442C219 163.65 219.884 163.91 221.158 164.222C221.99 164.43 222.341 164.521 222.211 164.495C223.875 164.937 225.162 165.431 226.072 165.977C226.982 166.523 227.619 167.173 227.983 167.927C228.373 168.655 228.568 169.591 228.568 170.735C228.568 172.529 227.788 173.959 226.228 175.025C224.694 176.065 222.458 176.585 219.52 176.585ZM241.508 176.585C237.842 176.585 234.956 175.727 232.85 174.011C230.77 172.295 229.73 169.864 229.73 166.718C229.73 163.624 230.653 161.18 232.499 159.386C234.371 157.592 237.062 156.695 240.572 156.695C242.808 156.695 244.719 157.124 246.305 157.982C247.917 158.814 249.126 159.971 249.932 161.453C250.764 162.909 251.18 164.56 251.18 166.406V168.941H236.243C236.503 169.981 237.153 170.735 238.193 171.203C239.233 171.671 240.65 171.905 242.444 171.905C243.666 171.905 244.914 171.801 246.188 171.593C247.488 171.385 248.606 171.099 249.542 170.735V175.259C248.58 175.649 247.371 175.961 245.915 176.195C244.485 176.455 243.016 176.585 241.508 176.585ZM244.706 164.651C244.602 163.637 244.186 162.844 243.458 162.272C242.73 161.7 241.729 161.414 240.455 161.414C239.207 161.414 238.219 161.713 237.491 162.311C236.763 162.883 236.347 163.663 236.243 164.651H244.706ZM253.115 147.179H259.979V176H253.115V147.179ZM263.747 162.038H261.134V157.28H263.747V154.94C263.747 152.418 264.54 150.468 266.126 149.09C267.738 147.686 269.818 146.984 272.366 146.984C273.796 146.984 275.044 147.218 276.11 147.686V153.146C275.382 152.782 274.563 152.6 273.653 152.6C272.613 152.6 271.846 152.834 271.352 153.302C270.858 153.77 270.611 154.511 270.611 155.525V157.28H274.94V162.038H270.611V176H263.747V162.038Z" fill="black"/>
<rect x="59" y="357" width="214" height="53" rx="26.5" fill="#5E1EE5"/>
<path d="M97.68 389V377.8H102.4C103.595 377.8 104.645 378.035 105.552 378.504C106.469 378.973 107.179 379.629 107.68 380.472C108.192 381.315 108.448 382.291 108.448 383.4C108.448 384.509 108.192 385.485 107.68 386.328C107.179 387.171 106.469 387.827 105.552 388.296C104.645 388.765 103.595 389 102.4 389H97.68ZM99.28 387.608H102.304C103.232 387.608 104.032 387.432 104.704 387.08C105.387 386.728 105.915 386.237 106.288 385.608C106.661 384.968 106.848 384.232 106.848 383.4C106.848 382.557 106.661 381.821 106.288 381.192C105.915 380.563 105.387 380.072 104.704 379.72C104.032 379.368 103.232 379.192 102.304 379.192H99.28V387.608ZM110.675 389V380.52H112.211V389H110.675ZM111.443 378.888C111.144 378.888 110.893 378.792 110.691 378.6C110.499 378.408 110.403 378.173 110.403 377.896C110.403 377.608 110.499 377.368 110.691 377.176C110.893 376.984 111.144 376.888 111.443 376.888C111.741 376.888 111.987 376.984 112.179 377.176C112.381 377.357 112.483 377.587 112.483 377.864C112.483 378.152 112.387 378.397 112.195 378.6C112.003 378.792 111.752 378.888 111.443 378.888ZM117.576 389.096C116.872 389.096 116.2 389 115.56 388.808C114.93 388.616 114.434 388.381 114.072 388.104L114.712 386.888C115.074 387.133 115.522 387.341 116.056 387.512C116.589 387.683 117.133 387.768 117.688 387.768C118.402 387.768 118.914 387.667 119.224 387.464C119.544 387.261 119.704 386.979 119.704 386.616C119.704 386.349 119.608 386.141 119.416 385.992C119.224 385.843 118.968 385.731 118.648 385.656C118.338 385.581 117.992 385.517 117.608 385.464C117.224 385.4 116.84 385.325 116.456 385.24C116.072 385.144 115.72 385.016 115.4 384.856C115.08 384.685 114.824 384.456 114.632 384.168C114.44 383.869 114.344 383.475 114.344 382.984C114.344 382.472 114.488 382.024 114.776 381.64C115.064 381.256 115.469 380.963 115.992 380.76C116.525 380.547 117.154 380.44 117.88 380.44C118.434 380.44 118.994 380.509 119.56 380.648C120.136 380.776 120.605 380.963 120.968 381.208L120.312 382.424C119.928 382.168 119.528 381.992 119.112 381.896C118.696 381.8 118.28 381.752 117.864 381.752C117.192 381.752 116.69 381.864 116.36 382.088C116.029 382.301 115.864 382.579 115.864 382.92C115.864 383.208 115.96 383.432 116.152 383.592C116.354 383.741 116.61 383.859 116.92 383.944C117.24 384.029 117.592 384.104 117.976 384.168C118.36 384.221 118.744 384.296 119.128 384.392C119.512 384.477 119.858 384.6 120.168 384.76C120.488 384.92 120.744 385.144 120.936 385.432C121.138 385.72 121.24 386.104 121.24 386.584C121.24 387.096 121.09 387.539 120.792 387.912C120.493 388.285 120.072 388.579 119.528 388.792C118.984 388.995 118.333 389.096 117.576 389.096ZM126.855 389.096C125.991 389.096 125.218 388.909 124.535 388.536C123.863 388.163 123.335 387.651 122.951 387C122.567 386.349 122.375 385.603 122.375 384.76C122.375 383.917 122.567 383.171 122.951 382.52C123.335 381.869 123.863 381.363 124.535 381C125.218 380.627 125.991 380.44 126.855 380.44C127.623 380.44 128.306 380.595 128.903 380.904C129.511 381.203 129.98 381.651 130.311 382.248L129.143 383C128.866 382.584 128.524 382.28 128.119 382.088C127.724 381.885 127.298 381.784 126.839 381.784C126.284 381.784 125.788 381.907 125.351 382.152C124.914 382.397 124.567 382.744 124.311 383.192C124.055 383.629 123.927 384.152 123.927 384.76C123.927 385.368 124.055 385.896 124.311 386.344C124.567 386.792 124.914 387.139 125.351 387.384C125.788 387.629 126.284 387.752 126.839 387.752C127.298 387.752 127.724 387.656 128.119 387.464C128.524 387.261 128.866 386.952 129.143 386.536L130.311 387.272C129.98 387.859 129.511 388.312 128.903 388.632C128.306 388.941 127.623 389.096 126.855 389.096ZM135.807 389.096C134.953 389.096 134.196 388.909 133.535 388.536C132.873 388.163 132.351 387.651 131.967 387C131.583 386.339 131.391 385.592 131.391 384.76C131.391 383.917 131.583 383.171 131.967 382.52C132.351 381.869 132.873 381.363 133.535 381C134.196 380.627 134.953 380.44 135.807 380.44C136.649 380.44 137.401 380.627 138.063 381C138.735 381.363 139.257 381.869 139.631 382.52C140.015 383.16 140.207 383.907 140.207 384.76C140.207 385.603 140.015 386.349 139.631 387C139.257 387.651 138.735 388.163 138.063 388.536C137.401 388.909 136.649 389.096 135.807 389.096ZM135.807 387.752C136.351 387.752 136.836 387.629 137.263 387.384C137.7 387.139 138.041 386.792 138.287 386.344C138.532 385.885 138.655 385.357 138.655 384.76C138.655 384.152 138.532 383.629 138.287 383.192C138.041 382.744 137.7 382.397 137.263 382.152C136.836 381.907 136.351 381.784 135.807 381.784C135.263 381.784 134.777 381.907 134.351 382.152C133.924 382.397 133.583 382.744 133.327 383.192C133.071 383.629 132.943 384.152 132.943 384.76C132.943 385.357 133.071 385.885 133.327 386.344C133.583 386.792 133.924 387.139 134.351 387.384C134.777 387.629 135.263 387.752 135.807 387.752ZM144.321 389L140.609 380.52H142.209L145.505 388.2H144.737L148.097 380.52H149.601L145.889 389H144.321ZM154.576 389.096C153.669 389.096 152.869 388.909 152.176 388.536C151.493 388.163 150.96 387.651 150.576 387C150.202 386.349 150.016 385.603 150.016 384.76C150.016 383.917 150.197 383.171 150.56 382.52C150.933 381.869 151.44 381.363 152.08 381C152.73 380.627 153.461 380.44 154.272 380.44C155.093 380.44 155.818 380.621 156.448 380.984C157.077 381.347 157.568 381.859 157.92 382.52C158.282 383.171 158.464 383.933 158.464 384.808C158.464 384.872 158.458 384.947 158.448 385.032C158.448 385.117 158.442 385.197 158.432 385.272H151.216V384.168H157.632L157.008 384.552C157.018 384.008 156.906 383.523 156.672 383.096C156.437 382.669 156.112 382.339 155.696 382.104C155.29 381.859 154.816 381.736 154.272 381.736C153.738 381.736 153.264 381.859 152.848 382.104C152.432 382.339 152.106 382.675 151.872 383.112C151.637 383.539 151.52 384.029 151.52 384.584V384.84C151.52 385.405 151.648 385.912 151.904 386.36C152.17 386.797 152.538 387.139 153.008 387.384C153.477 387.629 154.016 387.752 154.624 387.752C155.125 387.752 155.578 387.667 155.984 387.496C156.4 387.325 156.762 387.069 157.072 386.728L157.92 387.72C157.536 388.168 157.056 388.509 156.48 388.744C155.914 388.979 155.28 389.096 154.576 389.096ZM160.597 389V380.52H162.069V382.824L161.925 382.248C162.159 381.661 162.554 381.213 163.109 380.904C163.663 380.595 164.346 380.44 165.157 380.44V381.928C165.093 381.917 165.029 381.912 164.965 381.912C164.911 381.912 164.858 381.912 164.805 381.912C163.983 381.912 163.333 382.157 162.853 382.648C162.373 383.139 162.133 383.848 162.133 384.776V389H160.597ZM171.68 389V377.8H172.992L180.4 387H179.712V377.8H181.312V389H180L172.592 379.8H173.28V389H171.68ZM188.072 389.096C187.219 389.096 186.462 388.909 185.8 388.536C185.139 388.163 184.616 387.651 184.232 387C183.848 386.339 183.656 385.592 183.656 384.76C183.656 383.917 183.848 383.171 184.232 382.52C184.616 381.869 185.139 381.363 185.8 381C186.462 380.627 187.219 380.44 188.072 380.44C188.915 380.44 189.667 380.627 190.328 381C191 381.363 191.523 381.869 191.896 382.52C192.28 383.16 192.472 383.907 192.472 384.76C192.472 385.603 192.28 386.349 191.896 387C191.523 387.651 191 388.163 190.328 388.536C189.667 388.909 188.915 389.096 188.072 389.096ZM188.072 387.752C188.616 387.752 189.102 387.629 189.528 387.384C189.966 387.139 190.307 386.792 190.552 386.344C190.798 385.885 190.92 385.357 190.92 384.76C190.92 384.152 190.798 383.629 190.552 383.192C190.307 382.744 189.966 382.397 189.528 382.152C189.102 381.907 188.616 381.784 188.072 381.784C187.528 381.784 187.043 381.907 186.616 382.152C186.19 382.397 185.848 382.744 185.592 383.192C185.336 383.629 185.208 384.152 185.208 384.76C185.208 385.357 185.336 385.885 185.592 386.344C185.848 386.792 186.19 387.139 186.616 387.384C187.043 387.629 187.528 387.752 188.072 387.752ZM196.154 389L193.002 380.52H194.458L197.258 388.2H196.57L199.482 380.52H200.778L203.626 388.2H202.954L205.818 380.52H207.194L204.026 389H202.554L199.882 381.992H200.33L197.626 389H196.154Z" fill="white"/>
<path d="M221.75 383.5H232.25" stroke="white" stroke-width="2" stroke-linecap="round" stroke-linejoin="round"/>
<path d="M227 378.25L232.25 383.5L227 388.75" stroke="white" stroke-width="2" stroke-linecap="round" stroke-linejoin="round"/>
</svg>
