<svg width="610" height="490" viewBox="0 0 610 490" fill="none" xmlns="http://www.w3.org/2000/svg">
<rect width="610" height="490" rx="21" fill="#F3F4F6"/>
<rect x="249" y="187" width="306" height="267" fill="#D9D9D9"/>
<path d="M49.4 101.344L55.616 95.688L58.304 93.28C60.5067 91.3387 62.1867 89.7893 63.344 88.632C64.5387 87.4747 65.5093 86.2987 66.256 85.104C67.04 83.9093 67.432 82.7333 67.432 81.576C67.432 78.104 65.472 76.368 61.552 76.368C59.648 76.368 57.7627 76.704 55.896 77.376C54.0667 78.048 52.368 78.9813 50.8 80.176V70.712C52.48 69.5547 54.44 68.6587 56.68 68.024C58.92 67.352 61.3093 67.016 63.848 67.016C66.76 67.016 69.28 67.5573 71.408 68.64C73.536 69.7227 75.16 71.216 76.28 73.12C77.4 75.024 77.96 77.1707 77.96 79.56C77.96 82.4347 77.288 84.9547 75.944 87.12C74.6373 89.248 72.5093 91.656 69.56 94.344L64.576 98.88H79.192V107H49.4V101.344ZM98.9057 107.84C95.2844 107.84 92.1111 107.037 89.3857 105.432C86.6604 103.789 84.5511 101.437 83.0577 98.376C81.6017 95.3147 80.8737 91.6747 80.8737 87.456C80.8737 83.2373 81.6017 79.5973 83.0577 76.536C84.5137 73.4747 86.5857 71.1227 89.2737 69.48C91.9991 67.8373 95.2097 67.016 98.9057 67.016C102.602 67.016 105.794 67.8373 108.482 69.48C111.207 71.1227 113.298 73.4747 114.754 76.536C116.21 79.5973 116.938 83.2373 116.938 87.456C116.938 91.6747 116.191 95.3147 114.698 98.376C113.242 101.437 111.151 103.789 108.426 105.432C105.7 107.037 102.527 107.84 98.9057 107.84ZM98.9057 98.544C101.407 98.544 103.348 97.5733 104.73 95.632C106.111 93.6907 106.802 91.0027 106.802 87.568C106.802 84.096 106.111 81.3707 104.73 79.392C103.386 77.376 101.444 76.368 98.9057 76.368C96.3671 76.368 94.4071 77.376 93.0257 79.392C91.6817 81.3707 91.0098 84.096 91.0098 87.568C91.0098 91.0027 91.7004 93.6907 93.0818 95.632C94.4631 97.5733 96.4044 98.544 98.9057 98.544ZM128.885 87.568C127.018 87.568 125.301 87.12 123.733 86.224C122.165 85.2907 120.914 84.04 119.981 82.472C119.085 80.904 118.637 79.1867 118.637 77.32C118.637 75.4533 119.085 73.736 119.981 72.168C120.914 70.5627 122.165 69.312 123.733 68.416C125.301 67.4827 127.018 67.016 128.885 67.016C130.751 67.016 132.469 67.4827 134.037 68.416C135.642 69.312 136.893 70.5627 137.789 72.168C138.722 73.736 139.189 75.4533 139.189 77.32C139.189 79.1867 138.722 80.904 137.789 82.472C136.893 84.04 135.642 85.2907 134.037 86.224C132.469 87.12 130.751 87.568 128.885 87.568ZM148.093 67.856H158.117L136.445 107H126.421L148.093 67.856ZM128.885 81.52C130.042 81.52 131.013 81.1467 131.797 80.4C132.581 79.616 132.973 78.6453 132.973 77.488C132.973 76.2933 132.581 75.304 131.797 74.52C131.013 73.736 130.042 73.344 128.885 73.344C127.727 73.344 126.757 73.736 125.973 74.52C125.226 75.304 124.853 76.2933 124.853 77.488C124.853 78.6453 125.226 79.616 125.973 80.4C126.757 81.1467 127.727 81.52 128.885 81.52ZM155.541 107.84C153.674 107.84 151.957 107.392 150.389 106.496C148.821 105.563 147.57 104.312 146.637 102.744C145.741 101.176 145.293 99.4587 145.293 97.592C145.293 95.7253 145.741 94.008 146.637 92.44C147.57 90.8347 148.821 89.584 150.389 88.688C151.957 87.7547 153.674 87.288 155.541 87.288C157.407 87.288 159.125 87.7547 160.693 88.688C162.298 89.584 163.549 90.8347 164.445 92.44C165.378 94.008 165.845 95.7253 165.845 97.592C165.845 99.4587 165.378 101.176 164.445 102.744C163.549 104.312 162.298 105.563 160.693 106.496C159.125 107.392 157.407 107.84 155.541 107.84ZM155.485 101.792C156.642 101.792 157.613 101.419 158.397 100.672C159.181 99.888 159.573 98.9173 159.573 97.76C159.573 96.5653 159.181 95.576 158.397 94.792C157.613 94.008 156.642 93.616 155.485 93.616C154.327 93.616 153.357 94.008 152.573 94.792C151.826 95.576 151.453 96.5653 151.453 97.76C151.453 98.9173 151.826 99.888 152.573 100.672C153.357 101.419 154.327 101.792 155.485 101.792ZM206.468 107.84C202.511 107.84 198.927 106.981 195.716 105.264C192.543 103.547 190.023 101.157 188.156 98.096C186.327 94.9973 185.412 91.4507 185.412 87.456C185.412 83.4613 186.327 79.9147 188.156 76.816C190.023 73.7173 192.543 71.3093 195.716 69.592C198.927 67.8747 202.511 67.016 206.468 67.016C210.388 67.016 213.935 67.8747 217.108 69.592C220.319 71.3093 222.839 73.7173 224.668 76.816C226.498 79.9147 227.412 83.4613 227.412 87.456C227.412 91.4507 226.498 94.9973 224.668 98.096C222.839 101.157 220.319 103.547 217.108 105.264C213.935 106.981 210.388 107.84 206.468 107.84ZM206.468 98.544C208.447 98.544 210.258 98.096 211.9 97.2C213.543 96.304 214.85 95.016 215.82 93.336C216.791 91.656 217.276 89.696 217.276 87.456C217.276 85.216 216.791 83.2747 215.82 81.632C214.887 79.952 213.599 78.664 211.956 77.768C210.314 76.8347 208.484 76.368 206.468 76.368C204.415 76.368 202.567 76.8347 200.924 77.768C199.282 78.664 197.975 79.952 197.004 81.632C196.071 83.2747 195.604 85.216 195.604 87.456C195.604 89.696 196.071 91.656 197.004 93.336C197.975 95.016 199.282 96.304 200.924 97.2C202.604 98.096 204.452 98.544 206.468 98.544ZM230.201 67.856H257.977V76.2H240.113V83.536H253.161V91.32H240.113V107H230.201V67.856ZM259.652 67.856H287.428V76.2H269.564V83.536H282.612V91.32H269.564V107H259.652V67.856Z" fill="black"/>
<path d="M55.153 158.23C53.8957 158.23 52.692 158.054 51.542 157.701C50.392 157.333 49.4797 156.865 48.805 156.298L49.84 153.975C50.484 154.481 51.2813 154.903 52.232 155.24C53.1827 155.577 54.1563 155.746 55.153 155.746C55.9963 155.746 56.6787 155.654 57.2 155.47C57.7213 155.286 58.1047 155.041 58.35 154.734C58.5953 154.412 58.718 154.052 58.718 153.653C58.718 153.162 58.5417 152.771 58.189 152.48C57.8363 152.173 57.3763 151.936 56.809 151.767C56.257 151.583 55.636 151.414 54.946 151.261C54.2713 151.108 53.589 150.931 52.899 150.732C52.2243 150.517 51.6033 150.249 51.036 149.927C50.484 149.59 50.0317 149.145 49.679 148.593C49.3263 148.041 49.15 147.336 49.15 146.477C49.15 145.603 49.38 144.806 49.84 144.085C50.3153 143.349 51.0283 142.766 51.979 142.337C52.945 141.892 54.164 141.67 55.636 141.67C56.602 141.67 57.5603 141.793 58.511 142.038C59.4617 142.283 60.2897 142.636 60.995 143.096L60.052 145.419C59.3313 144.99 58.5877 144.675 57.821 144.476C57.0543 144.261 56.3183 144.154 55.613 144.154C54.785 144.154 54.1103 144.254 53.589 144.453C53.083 144.652 52.7073 144.913 52.462 145.235C52.232 145.557 52.117 145.925 52.117 146.339C52.117 146.83 52.2857 147.228 52.623 147.535C52.9757 147.826 53.428 148.056 53.98 148.225C54.5473 148.394 55.176 148.562 55.866 148.731C56.556 148.884 57.2383 149.061 57.913 149.26C58.603 149.459 59.224 149.72 59.776 150.042C60.3433 150.364 60.7957 150.801 61.133 151.353C61.4857 151.905 61.662 152.603 61.662 153.446C61.662 154.305 61.4243 155.102 60.949 155.838C60.489 156.559 59.776 157.141 58.81 157.586C57.844 158.015 56.625 158.23 55.153 158.23ZM70.6988 158.161C69.7022 158.161 68.7898 157.931 67.9618 157.471C67.1492 157.011 66.4975 156.321 66.0068 155.401C65.5315 154.466 65.2938 153.285 65.2938 151.859C65.2938 150.418 65.5238 149.237 65.9838 148.317C66.4592 147.397 67.1032 146.715 67.9158 146.27C68.7285 145.81 69.6562 145.58 70.6988 145.58C71.9102 145.58 72.9758 145.841 73.8958 146.362C74.8312 146.883 75.5672 147.612 76.1038 148.547C76.6558 149.482 76.9318 150.586 76.9318 151.859C76.9318 153.132 76.6558 154.243 76.1038 155.194C75.5672 156.129 74.8312 156.858 73.8958 157.379C72.9758 157.9 71.9102 158.161 70.6988 158.161ZM63.8908 162.462V145.718H66.6278V148.616L66.5358 151.882L66.7658 155.148V162.462H63.8908ZM70.3768 155.7C71.0668 155.7 71.6802 155.547 72.2168 155.24C72.7688 154.933 73.2058 154.489 73.5278 153.906C73.8498 153.323 74.0108 152.641 74.0108 151.859C74.0108 151.062 73.8498 150.379 73.5278 149.812C73.2058 149.229 72.7688 148.785 72.2168 148.478C71.6802 148.171 71.0668 148.018 70.3768 148.018C69.6868 148.018 69.0658 148.171 68.5138 148.478C67.9618 148.785 67.5248 149.229 67.2028 149.812C66.8808 150.379 66.7198 151.062 66.7198 151.859C66.7198 152.641 66.8808 153.323 67.2028 153.906C67.5248 154.489 67.9618 154.933 68.5138 155.24C69.0658 155.547 69.6868 155.7 70.3768 155.7ZM84.9714 158.161C83.6068 158.161 82.4108 157.893 81.3834 157.356C80.3714 156.804 79.5818 156.053 79.0144 155.102C78.4624 154.151 78.1864 153.07 78.1864 151.859C78.1864 150.632 78.4548 149.551 78.9914 148.616C79.5434 147.665 80.2948 146.922 81.2454 146.385C82.2114 145.848 83.3078 145.58 84.5344 145.58C85.7304 145.58 86.7961 145.841 87.7314 146.362C88.6668 146.883 89.4028 147.619 89.9394 148.57C90.4761 149.521 90.7444 150.64 90.7444 151.928C90.7444 152.051 90.7368 152.189 90.7214 152.342C90.7214 152.495 90.7138 152.641 90.6984 152.779H80.4634V150.87H89.1804L88.0534 151.468C88.0688 150.763 87.9231 150.142 87.6164 149.605C87.3098 149.068 86.8881 148.647 86.3514 148.34C85.8301 148.033 85.2244 147.88 84.5344 147.88C83.8291 147.88 83.2081 148.033 82.6714 148.34C82.1501 148.647 81.7361 149.076 81.4294 149.628C81.1381 150.165 80.9924 150.801 80.9924 151.537V151.997C80.9924 152.733 81.1611 153.385 81.4984 153.952C81.8358 154.519 82.3111 154.956 82.9244 155.263C83.5378 155.57 84.2431 155.723 85.0404 155.723C85.7304 155.723 86.3514 155.616 86.9034 155.401C87.4554 155.186 87.9461 154.849 88.3754 154.389L89.9164 156.16C89.3644 156.804 88.6668 157.302 87.8234 157.655C86.9954 157.992 86.0448 158.161 84.9714 158.161ZM98.681 158.161C97.393 158.161 96.243 157.893 95.231 157.356C94.2344 156.804 93.4524 156.053 92.885 155.102C92.3177 154.151 92.034 153.07 92.034 151.859C92.034 150.632 92.3177 149.551 92.885 148.616C93.4524 147.665 94.2344 146.922 95.231 146.385C96.243 145.848 97.393 145.58 98.681 145.58C99.877 145.58 100.927 145.825 101.832 146.316C102.752 146.791 103.45 147.497 103.925 148.432L101.717 149.72C101.349 149.137 100.897 148.708 100.36 148.432C99.8387 148.156 99.2714 148.018 98.658 148.018C97.9527 148.018 97.3164 148.171 96.749 148.478C96.1817 148.785 95.737 149.229 95.415 149.812C95.093 150.379 94.932 151.062 94.932 151.859C94.932 152.656 95.093 153.346 95.415 153.929C95.737 154.496 96.1817 154.933 96.749 155.24C97.3164 155.547 97.9527 155.7 98.658 155.7C99.2714 155.7 99.8387 155.562 100.36 155.286C100.897 155.01 101.349 154.581 101.717 153.998L103.925 155.286C103.45 156.206 102.752 156.919 101.832 157.425C100.927 157.916 99.877 158.161 98.681 158.161ZM105.838 158V145.718H108.713V158H105.838ZM107.287 143.694C106.75 143.694 106.306 143.525 105.953 143.188C105.616 142.851 105.447 142.444 105.447 141.969C105.447 141.478 105.616 141.072 105.953 140.75C106.306 140.413 106.75 140.244 107.287 140.244C107.824 140.244 108.261 140.405 108.598 140.727C108.951 141.034 109.127 141.425 109.127 141.9C109.127 142.406 108.958 142.835 108.621 143.188C108.284 143.525 107.839 143.694 107.287 143.694ZM119.593 158V155.516L119.432 154.987V150.64C119.432 149.797 119.179 149.145 118.673 148.685C118.167 148.21 117.401 147.972 116.373 147.972C115.683 147.972 115.001 148.079 114.326 148.294C113.667 148.509 113.107 148.808 112.647 149.191L111.52 147.098C112.18 146.592 112.962 146.216 113.866 145.971C114.786 145.71 115.737 145.58 116.718 145.58C118.497 145.58 119.869 146.009 120.835 146.868C121.817 147.711 122.307 149.022 122.307 150.801V158H119.593ZM115.729 158.161C114.809 158.161 114.004 158.008 113.314 157.701C112.624 157.379 112.088 156.942 111.704 156.39C111.336 155.823 111.152 155.186 111.152 154.481C111.152 153.791 111.313 153.17 111.635 152.618C111.973 152.066 112.517 151.629 113.268 151.307C114.02 150.985 115.016 150.824 116.258 150.824H119.823V152.733H116.465C115.484 152.733 114.825 152.894 114.487 153.216C114.15 153.523 113.981 153.906 113.981 154.366C113.981 154.887 114.188 155.301 114.602 155.608C115.016 155.915 115.591 156.068 116.327 156.068C117.033 156.068 117.661 155.907 118.213 155.585C118.781 155.263 119.187 154.788 119.432 154.159L119.915 155.884C119.639 156.605 119.141 157.164 118.42 157.563C117.715 157.962 116.818 158.161 115.729 158.161ZM125.537 158V140.934H128.412V158H125.537ZM145.35 158.23C144.123 158.23 142.981 158.031 141.923 157.632C140.88 157.218 139.968 156.643 139.186 155.907C138.419 155.156 137.821 154.274 137.392 153.262C136.963 152.25 136.748 151.146 136.748 149.95C136.748 148.754 136.963 147.65 137.392 146.638C137.821 145.626 138.427 144.752 139.209 144.016C139.991 143.265 140.903 142.69 141.946 142.291C142.989 141.877 144.131 141.67 145.373 141.67C146.692 141.67 147.895 141.9 148.984 142.36C150.073 142.805 150.993 143.472 151.744 144.361L149.812 146.178C149.229 145.549 148.578 145.082 147.857 144.775C147.136 144.453 146.354 144.292 145.511 144.292C144.668 144.292 143.893 144.43 143.188 144.706C142.498 144.982 141.892 145.373 141.371 145.879C140.865 146.385 140.466 146.983 140.175 147.673C139.899 148.363 139.761 149.122 139.761 149.95C139.761 150.778 139.899 151.537 140.175 152.227C140.466 152.917 140.865 153.515 141.371 154.021C141.892 154.527 142.498 154.918 143.188 155.194C143.893 155.47 144.668 155.608 145.511 155.608C146.354 155.608 147.136 155.455 147.857 155.148C148.578 154.826 149.229 154.343 149.812 153.699L151.744 155.539C150.993 156.413 150.073 157.08 148.984 157.54C147.895 158 146.684 158.23 145.35 158.23ZM160.842 145.58C161.823 145.58 162.697 145.772 163.464 146.155C164.246 146.538 164.859 147.129 165.304 147.926C165.749 148.708 165.971 149.72 165.971 150.962V158H163.096V151.33C163.096 150.241 162.835 149.429 162.314 148.892C161.808 148.355 161.095 148.087 160.175 148.087C159.5 148.087 158.902 148.225 158.381 148.501C157.86 148.777 157.453 149.191 157.162 149.743C156.886 150.28 156.748 150.962 156.748 151.79V158H153.873V140.934H156.748V149.03L156.127 148.018C156.556 147.236 157.177 146.638 157.99 146.224C158.818 145.795 159.769 145.58 160.842 145.58ZM169.158 158V145.718H171.895V149.099L171.573 148.11C171.941 147.282 172.516 146.653 173.298 146.224C174.095 145.795 175.084 145.58 176.265 145.58V148.317C176.142 148.286 176.027 148.271 175.92 148.271C175.813 148.256 175.705 148.248 175.598 148.248C174.509 148.248 173.643 148.57 172.999 149.214C172.355 149.843 172.033 150.786 172.033 152.043V158H169.158ZM178.244 158V145.718H181.119V158H178.244ZM179.693 143.694C179.156 143.694 178.712 143.525 178.359 143.188C178.022 142.851 177.853 142.444 177.853 141.969C177.853 141.478 178.022 141.072 178.359 140.75C178.712 140.413 179.156 140.244 179.693 140.244C180.23 140.244 180.667 140.405 181.004 140.727C181.357 141.034 181.533 141.425 181.533 141.9C181.533 142.406 181.364 142.835 181.027 143.188C180.69 143.525 180.245 143.694 179.693 143.694ZM188.227 158.161C187.2 158.161 186.211 158.031 185.26 157.77C184.325 157.494 183.581 157.164 183.029 156.781L184.133 154.596C184.685 154.949 185.345 155.24 186.111 155.47C186.878 155.7 187.645 155.815 188.411 155.815C189.316 155.815 189.968 155.692 190.366 155.447C190.78 155.202 190.987 154.872 190.987 154.458C190.987 154.121 190.849 153.868 190.573 153.699C190.297 153.515 189.937 153.377 189.492 153.285C189.048 153.193 188.549 153.109 187.997 153.032C187.461 152.955 186.916 152.856 186.364 152.733C185.828 152.595 185.337 152.403 184.892 152.158C184.448 151.897 184.087 151.552 183.811 151.123C183.535 150.694 183.397 150.126 183.397 149.421C183.397 148.639 183.62 147.964 184.064 147.397C184.509 146.814 185.13 146.37 185.927 146.063C186.74 145.741 187.698 145.58 188.802 145.58C189.63 145.58 190.466 145.672 191.309 145.856C192.153 146.04 192.85 146.301 193.402 146.638L192.298 148.823C191.716 148.47 191.125 148.233 190.527 148.11C189.945 147.972 189.362 147.903 188.779 147.903C187.905 147.903 187.254 148.033 186.824 148.294C186.41 148.555 186.203 148.884 186.203 149.283C186.203 149.651 186.341 149.927 186.617 150.111C186.893 150.295 187.254 150.441 187.698 150.548C188.143 150.655 188.634 150.747 189.17 150.824C189.722 150.885 190.267 150.985 190.803 151.123C191.34 151.261 191.831 151.453 192.275 151.698C192.735 151.928 193.103 152.258 193.379 152.687C193.655 153.116 193.793 153.676 193.793 154.366C193.793 155.133 193.563 155.8 193.103 156.367C192.659 156.934 192.022 157.379 191.194 157.701C190.366 158.008 189.377 158.161 188.227 158.161ZM200.432 158.161C199.083 158.161 198.04 157.816 197.304 157.126C196.568 156.421 196.2 155.386 196.2 154.021V143.004H199.075V153.952C199.075 154.535 199.221 154.987 199.512 155.309C199.819 155.631 200.241 155.792 200.777 155.792C201.421 155.792 201.958 155.623 202.387 155.286L203.192 157.333C202.855 157.609 202.441 157.816 201.95 157.954C201.46 158.092 200.954 158.161 200.432 158.161ZM194.176 148.11V145.81H202.364V148.11H194.176ZM220.599 145.58C221.581 145.58 222.447 145.772 223.198 146.155C223.965 146.538 224.563 147.129 224.992 147.926C225.422 148.708 225.636 149.72 225.636 150.962V158H222.761V151.33C222.761 150.241 222.524 149.429 222.048 148.892C221.573 148.355 220.891 148.087 220.001 148.087C219.373 148.087 218.813 148.225 218.322 148.501C217.847 148.777 217.471 149.183 217.195 149.72C216.935 150.257 216.804 150.939 216.804 151.767V158H213.929V151.33C213.929 150.241 213.692 149.429 213.216 148.892C212.741 148.355 212.059 148.087 211.169 148.087C210.541 148.087 209.981 148.225 209.49 148.501C209.015 148.777 208.639 149.183 208.363 149.72C208.103 150.257 207.972 150.939 207.972 151.767V158H205.097V145.718H207.834V148.984L207.351 148.018C207.765 147.221 208.363 146.615 209.145 146.201C209.943 145.787 210.847 145.58 211.859 145.58C213.009 145.58 214.006 145.864 214.849 146.431C215.708 146.998 216.275 147.857 216.551 149.007L215.424 148.616C215.823 147.696 216.482 146.96 217.402 146.408C218.322 145.856 219.388 145.58 220.599 145.58ZM236.417 158V155.516L236.256 154.987V150.64C236.256 149.797 236.003 149.145 235.497 148.685C234.991 148.21 234.225 147.972 233.197 147.972C232.507 147.972 231.825 148.079 231.15 148.294C230.491 148.509 229.931 148.808 229.471 149.191L228.344 147.098C229.004 146.592 229.786 146.216 230.69 145.971C231.61 145.71 232.561 145.58 233.542 145.58C235.321 145.58 236.693 146.009 237.659 146.868C238.641 147.711 239.131 149.022 239.131 150.801V158H236.417ZM232.553 158.161C231.633 158.161 230.828 158.008 230.138 157.701C229.448 157.379 228.912 156.942 228.528 156.39C228.16 155.823 227.976 155.186 227.976 154.481C227.976 153.791 228.137 153.17 228.459 152.618C228.797 152.066 229.341 151.629 230.092 151.307C230.844 150.985 231.84 150.824 233.082 150.824H236.647V152.733H233.289C232.308 152.733 231.649 152.894 231.311 153.216C230.974 153.523 230.805 153.906 230.805 154.366C230.805 154.887 231.012 155.301 231.426 155.608C231.84 155.915 232.415 156.068 233.151 156.068C233.857 156.068 234.485 155.907 235.037 155.585C235.605 155.263 236.011 154.788 236.256 154.159L236.739 155.884C236.463 156.605 235.965 157.164 235.244 157.563C234.539 157.962 233.642 158.161 232.553 158.161ZM246.156 158.161C245.129 158.161 244.14 158.031 243.189 157.77C242.254 157.494 241.51 157.164 240.958 156.781L242.062 154.596C242.614 154.949 243.273 155.24 244.04 155.47C244.807 155.7 245.573 155.815 246.34 155.815C247.245 155.815 247.896 155.692 248.295 155.447C248.709 155.202 248.916 154.872 248.916 154.458C248.916 154.121 248.778 153.868 248.502 153.699C248.226 153.515 247.866 153.377 247.421 153.285C246.976 153.193 246.478 153.109 245.926 153.032C245.389 152.955 244.845 152.856 244.293 152.733C243.756 152.595 243.266 152.403 242.821 152.158C242.376 151.897 242.016 151.552 241.74 151.123C241.464 150.694 241.326 150.126 241.326 149.421C241.326 148.639 241.548 147.964 241.993 147.397C242.438 146.814 243.059 146.37 243.856 146.063C244.669 145.741 245.627 145.58 246.731 145.58C247.559 145.58 248.395 145.672 249.238 145.856C250.081 146.04 250.779 146.301 251.331 146.638L250.227 148.823C249.644 148.47 249.054 148.233 248.456 148.11C247.873 147.972 247.291 147.903 246.708 147.903C245.834 147.903 245.182 148.033 244.753 148.294C244.339 148.555 244.132 148.884 244.132 149.283C244.132 149.651 244.27 149.927 244.546 150.111C244.822 150.295 245.182 150.441 245.627 150.548C246.072 150.655 246.562 150.747 247.099 150.824C247.651 150.885 248.195 150.985 248.732 151.123C249.269 151.261 249.759 151.453 250.204 151.698C250.664 151.928 251.032 152.258 251.308 152.687C251.584 153.116 251.722 153.676 251.722 154.366C251.722 155.133 251.492 155.8 251.032 156.367C250.587 156.934 249.951 157.379 249.123 157.701C248.295 158.008 247.306 158.161 246.156 158.161ZM50.162 187V170.9H57.2C58.948 170.9 60.4813 171.237 61.8 171.912C63.1187 172.587 64.146 173.522 64.882 174.718C65.618 175.914 65.986 177.325 65.986 178.95C65.986 180.56 65.618 181.971 64.882 183.182C64.146 184.378 63.1187 185.313 61.8 185.988C60.4813 186.663 58.948 187 57.2 187H50.162ZM53.152 184.47H57.062C58.2733 184.47 59.316 184.24 60.19 183.78C61.0793 183.32 61.7617 182.676 62.237 181.848C62.7277 181.02 62.973 180.054 62.973 178.95C62.973 177.831 62.7277 176.865 62.237 176.052C61.7617 175.224 61.0793 174.58 60.19 174.12C59.316 173.66 58.2733 173.43 57.062 173.43H53.152V184.47ZM75.995 187V184.516L75.834 183.987V179.64C75.834 178.797 75.581 178.145 75.075 177.685C74.569 177.21 73.8023 176.972 72.775 176.972C72.085 176.972 71.4026 177.079 70.728 177.294C70.0686 177.509 69.509 177.808 69.049 178.191L67.922 176.098C68.5813 175.592 69.3633 175.216 70.268 174.971C71.188 174.71 72.1386 174.58 73.12 174.58C74.8986 174.58 76.271 175.009 77.237 175.868C78.2183 176.711 78.709 178.022 78.709 179.801V187H75.995ZM72.131 187.161C71.211 187.161 70.406 187.008 69.716 186.701C69.026 186.379 68.4893 185.942 68.106 185.39C67.738 184.823 67.554 184.186 67.554 183.481C67.554 182.791 67.715 182.17 68.037 181.618C68.3743 181.066 68.9186 180.629 69.67 180.307C70.4213 179.985 71.418 179.824 72.66 179.824H76.225V181.733H72.867C71.8856 181.733 71.2263 181.894 70.889 182.216C70.5516 182.523 70.383 182.906 70.383 183.366C70.383 183.887 70.59 184.301 71.004 184.608C71.418 184.915 71.993 185.068 72.729 185.068C73.4343 185.068 74.063 184.907 74.615 184.585C75.1823 184.263 75.5886 183.788 75.834 183.159L76.317 184.884C76.041 185.605 75.5426 186.164 74.822 186.563C74.1166 186.962 73.2196 187.161 72.131 187.161ZM82.726 191.623C82.128 191.623 81.53 191.523 80.932 191.324C80.334 191.125 79.8357 190.849 79.437 190.496L80.587 188.38C80.8784 188.641 81.208 188.848 81.576 189.001C81.944 189.154 82.3197 189.231 82.703 189.231C83.2244 189.231 83.646 189.101 83.968 188.84C84.29 188.579 84.589 188.142 84.865 187.529L85.578 185.919L85.808 185.574L90.454 174.718H93.214L87.464 187.989C87.0807 188.909 86.6514 189.637 86.176 190.174C85.716 190.711 85.1947 191.086 84.612 191.301C84.0447 191.516 83.416 191.623 82.726 191.623ZM85.256 187.437L79.713 174.718H82.703L87.211 185.321L85.256 187.437ZM108.267 187.23C107.01 187.23 105.852 187.023 104.794 186.609C103.736 186.195 102.816 185.62 102.034 184.884C101.252 184.133 100.647 183.259 100.217 182.262C99.788 181.25 99.5734 180.146 99.5734 178.95C99.5734 177.754 99.788 176.658 100.217 175.661C100.647 174.649 101.252 173.775 102.034 173.039C102.816 172.288 103.736 171.705 104.794 171.291C105.852 170.877 107.002 170.67 108.244 170.67C109.502 170.67 110.652 170.877 111.694 171.291C112.752 171.705 113.672 172.288 114.454 173.039C115.236 173.775 115.842 174.649 116.271 175.661C116.701 176.658 116.915 177.754 116.915 178.95C116.915 180.146 116.701 181.25 116.271 182.262C115.842 183.274 115.236 184.148 114.454 184.884C113.672 185.62 112.752 186.195 111.694 186.609C110.652 187.023 109.509 187.23 108.267 187.23ZM108.244 184.608C109.057 184.608 109.808 184.47 110.498 184.194C111.188 183.918 111.786 183.527 112.292 183.021C112.798 182.5 113.189 181.902 113.465 181.227C113.757 180.537 113.902 179.778 113.902 178.95C113.902 178.122 113.757 177.371 113.465 176.696C113.189 176.006 112.798 175.408 112.292 174.902C111.786 174.381 111.188 173.982 110.498 173.706C109.808 173.43 109.057 173.292 108.244 173.292C107.432 173.292 106.68 173.43 105.99 173.706C105.316 173.982 104.718 174.381 104.196 174.902C103.69 175.408 103.292 176.006 103 176.696C102.724 177.371 102.586 178.122 102.586 178.95C102.586 179.763 102.724 180.514 103 181.204C103.292 181.894 103.69 182.5 104.196 183.021C104.702 183.527 105.3 183.918 105.99 184.194C106.68 184.47 107.432 184.608 108.244 184.608ZM119.74 187V174.028C119.74 172.74 120.115 171.713 120.867 170.946C121.633 170.164 122.722 169.773 124.133 169.773C124.639 169.773 125.114 169.827 125.559 169.934C126.019 170.041 126.402 170.21 126.709 170.44L125.927 172.602C125.712 172.433 125.467 172.311 125.191 172.234C124.915 172.142 124.631 172.096 124.34 172.096C123.742 172.096 123.289 172.265 122.983 172.602C122.676 172.924 122.523 173.415 122.523 174.074V175.454L122.615 176.742V187H119.74ZM117.716 177.11V174.81H125.904V177.11H117.716ZM127.837 187V174.028C127.837 172.74 128.213 171.713 128.964 170.946C129.731 170.164 130.82 169.773 132.23 169.773C132.736 169.773 133.212 169.827 133.656 169.934C134.116 170.041 134.5 170.21 134.806 170.44L134.024 172.602C133.81 172.433 133.564 172.311 133.288 172.234C133.012 172.142 132.729 172.096 132.437 172.096C131.839 172.096 131.387 172.265 131.08 172.602C130.774 172.924 130.62 173.415 130.62 174.074V175.454L130.712 176.742V187H127.837ZM125.813 177.11V174.81H134.001V177.11H125.813ZM141.07 187.161C139.705 187.161 138.509 186.893 137.482 186.356C136.47 185.804 135.68 185.053 135.113 184.102C134.561 183.151 134.285 182.07 134.285 180.859C134.285 179.632 134.553 178.551 135.09 177.616C135.642 176.665 136.393 175.922 137.344 175.385C138.31 174.848 139.406 174.58 140.633 174.58C141.829 174.58 142.895 174.841 143.83 175.362C144.765 175.883 145.501 176.619 146.038 177.57C146.575 178.521 146.843 179.64 146.843 180.928C146.843 181.051 146.835 181.189 146.82 181.342C146.82 181.495 146.812 181.641 146.797 181.779H136.562V179.87H145.279L144.152 180.468C144.167 179.763 144.022 179.142 143.715 178.605C143.408 178.068 142.987 177.647 142.45 177.34C141.929 177.033 141.323 176.88 140.633 176.88C139.928 176.88 139.307 177.033 138.77 177.34C138.249 177.647 137.835 178.076 137.528 178.628C137.237 179.165 137.091 179.801 137.091 180.537V180.997C137.091 181.733 137.26 182.385 137.597 182.952C137.934 183.519 138.41 183.956 139.023 184.263C139.636 184.57 140.342 184.723 141.139 184.723C141.829 184.723 142.45 184.616 143.002 184.401C143.554 184.186 144.045 183.849 144.474 183.389L146.015 185.16C145.463 185.804 144.765 186.302 143.922 186.655C143.094 186.992 142.143 187.161 141.07 187.161ZM149.144 187V174.718H151.881V178.099L151.559 177.11C151.927 176.282 152.502 175.653 153.284 175.224C154.082 174.795 155.071 174.58 156.251 174.58V177.317C156.129 177.286 156.014 177.271 155.906 177.271C155.799 177.256 155.692 177.248 155.584 177.248C154.496 177.248 153.629 177.57 152.985 178.214C152.341 178.843 152.019 179.786 152.019 181.043V187H149.144Z" fill="black"/>
<rect x="347" y="62" width="214" height="53" rx="26.5" fill="#5E1EE5"/>
<path d="M385.68 94V82.8H390.4C391.595 82.8 392.645 83.0347 393.552 83.504C394.469 83.9733 395.179 84.6293 395.68 85.472C396.192 86.3147 396.448 87.2907 396.448 88.4C396.448 89.5093 396.192 90.4853 395.68 91.328C395.179 92.1707 394.469 92.8267 393.552 93.296C392.645 93.7653 391.595 94 390.4 94H385.68ZM387.28 92.608H390.304C391.232 92.608 392.032 92.432 392.704 92.08C393.387 91.728 393.915 91.2373 394.288 90.608C394.661 89.968 394.848 89.232 394.848 88.4C394.848 87.5573 394.661 86.8213 394.288 86.192C393.915 85.5627 393.387 85.072 392.704 84.72C392.032 84.368 391.232 84.192 390.304 84.192H387.28V92.608ZM398.675 94V85.52H400.211V94H398.675ZM399.443 83.888C399.144 83.888 398.893 83.792 398.691 83.6C398.499 83.408 398.403 83.1733 398.403 82.896C398.403 82.608 398.499 82.368 398.691 82.176C398.893 81.984 399.144 81.888 399.443 81.888C399.741 81.888 399.987 81.984 400.179 82.176C400.381 82.3573 400.483 82.5867 400.483 82.864C400.483 83.152 400.387 83.3973 400.195 83.6C400.003 83.792 399.752 83.888 399.443 83.888ZM405.576 94.096C404.872 94.096 404.2 94 403.56 93.808C402.93 93.616 402.434 93.3813 402.072 93.104L402.712 91.888C403.074 92.1333 403.522 92.3413 404.056 92.512C404.589 92.6827 405.133 92.768 405.688 92.768C406.402 92.768 406.914 92.6667 407.224 92.464C407.544 92.2613 407.704 91.9787 407.704 91.616C407.704 91.3493 407.608 91.1413 407.416 90.992C407.224 90.8427 406.968 90.7307 406.648 90.656C406.338 90.5813 405.992 90.5173 405.608 90.464C405.224 90.4 404.84 90.3253 404.456 90.24C404.072 90.144 403.72 90.016 403.4 89.856C403.08 89.6853 402.824 89.456 402.632 89.168C402.44 88.8693 402.344 88.4747 402.344 87.984C402.344 87.472 402.488 87.024 402.776 86.64C403.064 86.256 403.469 85.9627 403.992 85.76C404.525 85.5467 405.154 85.44 405.88 85.44C406.434 85.44 406.994 85.5093 407.56 85.648C408.136 85.776 408.605 85.9627 408.968 86.208L408.312 87.424C407.928 87.168 407.528 86.992 407.112 86.896C406.696 86.8 406.28 86.752 405.864 86.752C405.192 86.752 404.69 86.864 404.36 87.088C404.029 87.3013 403.864 87.5787 403.864 87.92C403.864 88.208 403.96 88.432 404.152 88.592C404.354 88.7413 404.61 88.8587 404.92 88.944C405.24 89.0293 405.592 89.104 405.976 89.168C406.36 89.2213 406.744 89.296 407.128 89.392C407.512 89.4773 407.858 89.6 408.168 89.76C408.488 89.92 408.744 90.144 408.936 90.432C409.138 90.72 409.24 91.104 409.24 91.584C409.24 92.096 409.09 92.5387 408.792 92.912C408.493 93.2853 408.072 93.5787 407.528 93.792C406.984 93.9947 406.333 94.096 405.576 94.096ZM414.855 94.096C413.991 94.096 413.218 93.9093 412.535 93.536C411.863 93.1627 411.335 92.6507 410.951 92C410.567 91.3493 410.375 90.6027 410.375 89.76C410.375 88.9173 410.567 88.1707 410.951 87.52C411.335 86.8693 411.863 86.3627 412.535 86C413.218 85.6267 413.991 85.44 414.855 85.44C415.623 85.44 416.306 85.5947 416.903 85.904C417.511 86.2027 417.98 86.6507 418.311 87.248L417.143 88C416.866 87.584 416.524 87.28 416.119 87.088C415.724 86.8853 415.298 86.784 414.839 86.784C414.284 86.784 413.788 86.9067 413.351 87.152C412.914 87.3973 412.567 87.744 412.311 88.192C412.055 88.6293 411.927 89.152 411.927 89.76C411.927 90.368 412.055 90.896 412.311 91.344C412.567 91.792 412.914 92.1387 413.351 92.384C413.788 92.6293 414.284 92.752 414.839 92.752C415.298 92.752 415.724 92.656 416.119 92.464C416.524 92.2613 416.866 91.952 417.143 91.536L418.311 92.272C417.98 92.8587 417.511 93.312 416.903 93.632C416.306 93.9413 415.623 94.096 414.855 94.096ZM423.807 94.096C422.953 94.096 422.196 93.9093 421.535 93.536C420.873 93.1627 420.351 92.6507 419.967 92C419.583 91.3387 419.391 90.592 419.391 89.76C419.391 88.9173 419.583 88.1707 419.967 87.52C420.351 86.8693 420.873 86.3627 421.535 86C422.196 85.6267 422.953 85.44 423.807 85.44C424.649 85.44 425.401 85.6267 426.063 86C426.735 86.3627 427.257 86.8693 427.631 87.52C428.015 88.16 428.207 88.9067 428.207 89.76C428.207 90.6027 428.015 91.3493 427.631 92C427.257 92.6507 426.735 93.1627 426.063 93.536C425.401 93.9093 424.649 94.096 423.807 94.096ZM423.807 92.752C424.351 92.752 424.836 92.6293 425.263 92.384C425.7 92.1387 426.041 91.792 426.287 91.344C426.532 90.8853 426.655 90.3573 426.655 89.76C426.655 89.152 426.532 88.6293 426.287 88.192C426.041 87.744 425.7 87.3973 425.263 87.152C424.836 86.9067 424.351 86.784 423.807 86.784C423.263 86.784 422.777 86.9067 422.351 87.152C421.924 87.3973 421.583 87.744 421.327 88.192C421.071 88.6293 420.943 89.152 420.943 89.76C420.943 90.3573 421.071 90.8853 421.327 91.344C421.583 91.792 421.924 92.1387 422.351 92.384C422.777 92.6293 423.263 92.752 423.807 92.752ZM432.321 94L428.609 85.52H430.209L433.505 93.2H432.737L436.097 85.52H437.601L433.889 94H432.321ZM442.576 94.096C441.669 94.096 440.869 93.9093 440.176 93.536C439.493 93.1627 438.96 92.6507 438.576 92C438.202 91.3493 438.016 90.6027 438.016 89.76C438.016 88.9173 438.197 88.1707 438.56 87.52C438.933 86.8693 439.44 86.3627 440.08 86C440.73 85.6267 441.461 85.44 442.272 85.44C443.093 85.44 443.818 85.6213 444.448 85.984C445.077 86.3467 445.568 86.8587 445.92 87.52C446.282 88.1707 446.464 88.9333 446.464 89.808C446.464 89.872 446.458 89.9467 446.448 90.032C446.448 90.1173 446.442 90.1973 446.432 90.272H439.216V89.168H445.632L445.008 89.552C445.018 89.008 444.906 88.5227 444.672 88.096C444.437 87.6693 444.112 87.3387 443.696 87.104C443.29 86.8587 442.816 86.736 442.272 86.736C441.738 86.736 441.264 86.8587 440.848 87.104C440.432 87.3387 440.106 87.6747 439.872 88.112C439.637 88.5387 439.52 89.0293 439.52 89.584V89.84C439.52 90.4053 439.648 90.912 439.904 91.36C440.17 91.7973 440.538 92.1387 441.008 92.384C441.477 92.6293 442.016 92.752 442.624 92.752C443.125 92.752 443.578 92.6667 443.984 92.496C444.4 92.3253 444.762 92.0693 445.072 91.728L445.92 92.72C445.536 93.168 445.056 93.5093 444.48 93.744C443.914 93.9787 443.28 94.096 442.576 94.096ZM448.597 94V85.52H450.069V87.824L449.925 87.248C450.159 86.6613 450.554 86.2133 451.109 85.904C451.663 85.5947 452.346 85.44 453.157 85.44V86.928C453.093 86.9173 453.029 86.912 452.965 86.912C452.911 86.912 452.858 86.912 452.805 86.912C451.983 86.912 451.333 87.1573 450.853 87.648C450.373 88.1387 450.133 88.848 450.133 89.776V94H448.597ZM459.68 94V82.8H460.992L468.4 92H467.712V82.8H469.312V94H468L460.592 84.8H461.28V94H459.68ZM476.072 94.096C475.219 94.096 474.462 93.9093 473.8 93.536C473.139 93.1627 472.616 92.6507 472.232 92C471.848 91.3387 471.656 90.592 471.656 89.76C471.656 88.9173 471.848 88.1707 472.232 87.52C472.616 86.8693 473.139 86.3627 473.8 86C474.462 85.6267 475.219 85.44 476.072 85.44C476.915 85.44 477.667 85.6267 478.328 86C479 86.3627 479.523 86.8693 479.896 87.52C480.28 88.16 480.472 88.9067 480.472 89.76C480.472 90.6027 480.28 91.3493 479.896 92C479.523 92.6507 479 93.1627 478.328 93.536C477.667 93.9093 476.915 94.096 476.072 94.096ZM476.072 92.752C476.616 92.752 477.102 92.6293 477.528 92.384C477.966 92.1387 478.307 91.792 478.552 91.344C478.798 90.8853 478.92 90.3573 478.92 89.76C478.92 89.152 478.798 88.6293 478.552 88.192C478.307 87.744 477.966 87.3973 477.528 87.152C477.102 86.9067 476.616 86.784 476.072 86.784C475.528 86.784 475.043 86.9067 474.616 87.152C474.19 87.3973 473.848 87.744 473.592 88.192C473.336 88.6293 473.208 89.152 473.208 89.76C473.208 90.3573 473.336 90.8853 473.592 91.344C473.848 91.792 474.19 92.1387 474.616 92.384C475.043 92.6293 475.528 92.752 476.072 92.752ZM484.154 94L481.002 85.52H482.458L485.258 93.2H484.57L487.482 85.52H488.778L491.626 93.2H490.954L493.818 85.52H495.194L492.026 94H490.554L487.882 86.992H488.33L485.626 94H484.154Z" fill="white"/>
<path d="M509.75 88.5H520.25" stroke="white" stroke-width="2" stroke-linecap="round" stroke-linejoin="round"/>
<path d="M515 83.25L520.25 88.5L515 93.75" stroke="white" stroke-width="2" stroke-linecap="round" stroke-linejoin="round"/>
</svg>
