<svg width="610" height="490" viewBox="0 0 610 490" fill="none" xmlns="http://www.w3.org/2000/svg">
<rect width="610" height="490" rx="21" fill="#F3F4F6"/>
<rect x="103" y="187" width="422" height="267" fill="#D9D9D9"/>
<path d="M164.774 60.545H172.424L181.514 80.03L190.649 60.545H198.254V92H190.829V76.205L183.314 92H179.714L172.244 76.205V92H164.774V60.545ZM205.633 67.52C204.433 67.52 203.428 67.13 202.618 66.35C201.808 65.57 201.403 64.58 201.403 63.38C201.403 62.21 201.808 61.235 202.618 60.455C203.428 59.645 204.433 59.24 205.633 59.24C206.803 59.24 207.793 59.645 208.603 60.455C209.443 61.235 209.863 62.21 209.863 63.38C209.863 64.55 209.443 65.54 208.603 66.35C207.793 67.13 206.803 67.52 205.633 67.52ZM201.673 70.4H209.593V92H201.673V70.4ZM224.773 102.35C223.333 102.35 221.878 102.215 220.408 101.945C218.968 101.675 217.723 101.315 216.673 100.865V95.375C219.043 96.395 221.743 96.905 224.773 96.905C226.963 96.905 228.538 96.455 229.498 95.555C230.488 94.655 230.983 93.335 230.983 91.595V90.29C230.113 91.04 229.033 91.625 227.743 92.045C226.483 92.465 225.133 92.675 223.693 92.675C221.413 92.675 219.403 92.195 217.663 91.235C215.923 90.275 214.558 88.925 213.568 87.185C212.608 85.445 212.128 83.45 212.128 81.2C212.128 78.92 212.608 76.91 213.568 75.17C214.528 73.43 215.878 72.095 217.618 71.165C219.358 70.205 221.353 69.725 223.603 69.725C226.693 69.725 229.243 70.67 231.253 72.56V70.4H238.903V90.515C238.903 94.265 237.748 97.175 235.438 99.245C233.158 101.315 229.603 102.35 224.773 102.35ZM225.673 86.555C226.903 86.555 227.998 86.24 228.958 85.61C229.918 84.98 230.593 84.14 230.983 83.09V79.31C230.563 78.26 229.873 77.435 228.913 76.835C227.953 76.205 226.873 75.89 225.673 75.89C224.053 75.89 222.748 76.37 221.758 77.33C220.768 78.26 220.273 79.535 220.273 81.155C220.273 82.805 220.768 84.125 221.758 85.115C222.748 86.075 224.053 86.555 225.673 86.555ZM242.055 58.745H249.975V72.605C250.935 71.645 252.03 70.925 253.26 70.445C254.52 69.965 255.84 69.725 257.22 69.725C260.25 69.725 262.485 70.52 263.925 72.11C265.395 73.67 266.13 75.8 266.13 78.5V92H258.21V79.535C258.21 77.105 257.1 75.89 254.88 75.89C253.86 75.89 252.93 76.13 252.09 76.61C251.25 77.06 250.545 77.765 249.975 78.725V92H242.055V58.745ZM278.42 92.675C275.75 92.675 273.725 91.94 272.345 90.47C270.995 88.97 270.32 86.93 270.32 84.35V75.89H267.26V70.4H270.32V63.92H278.24V70.4H283.19V75.89H278.24V83.27C278.24 84.44 278.45 85.28 278.87 85.79C279.32 86.3 280.1 86.555 281.21 86.555C282.2 86.555 283.19 86.285 284.18 85.745V91.64C283.4 92 282.56 92.255 281.66 92.405C280.79 92.585 279.71 92.675 278.42 92.675ZM309.721 92.675C307.741 92.675 305.776 92.48 303.826 92.09C301.876 91.73 300.271 91.22 299.011 90.56V83.405C300.631 84.245 302.311 84.875 304.051 85.295C305.821 85.715 307.501 85.925 309.091 85.925C310.561 85.925 311.671 85.7 312.421 85.25C313.171 84.8 313.546 84.155 313.546 83.315C313.546 82.685 313.336 82.145 312.916 81.695C312.526 81.215 311.941 80.78 311.161 80.39C310.381 80 309.166 79.46 307.516 78.77C304.606 77.54 302.491 76.175 301.171 74.675C299.851 73.175 299.191 71.33 299.191 69.14C299.191 67.34 299.686 65.735 300.676 64.325C301.696 62.915 303.106 61.82 304.906 61.04C306.706 60.26 308.776 59.87 311.116 59.87C313.036 59.87 314.746 60.02 316.246 60.32C317.746 60.62 319.186 61.1 320.566 61.76V68.735C317.926 67.355 315.271 66.665 312.601 66.665C311.161 66.665 310.006 66.905 309.136 67.385C308.296 67.835 307.876 68.495 307.876 69.365C307.876 70.235 308.311 70.94 309.181 71.48C310.051 72.02 311.656 72.755 313.996 73.685C316.126 74.555 317.776 75.41 318.946 76.25C320.146 77.09 321.016 78.065 321.556 79.175C322.096 80.285 322.366 81.695 322.366 83.405C322.366 86.315 321.301 88.595 319.171 90.245C317.071 91.865 313.921 92.675 309.721 92.675ZM336.392 92.675C333.722 92.675 331.382 92.195 329.372 91.235C327.362 90.245 325.802 88.895 324.692 87.185C323.612 85.445 323.072 83.45 323.072 81.2C323.072 78.95 323.612 76.97 324.692 75.26C325.802 73.52 327.362 72.17 329.372 71.21C331.382 70.22 333.722 69.725 336.392 69.725C339.062 69.725 341.402 70.22 343.412 71.21C345.422 72.17 346.967 73.52 348.047 75.26C349.157 76.97 349.712 78.95 349.712 81.2C349.712 83.45 349.157 85.445 348.047 87.185C346.967 88.895 345.422 90.245 343.412 91.235C341.402 92.195 339.062 92.675 336.392 92.675ZM336.392 86.51C337.982 86.51 339.242 86.045 340.172 85.115C341.132 84.155 341.612 82.85 341.612 81.2C341.612 79.55 341.132 78.26 340.172 77.33C339.242 76.37 337.982 75.89 336.392 75.89C334.802 75.89 333.527 76.37 332.567 77.33C331.637 78.26 331.172 79.55 331.172 81.2C331.172 82.85 331.637 84.155 332.567 85.115C333.527 86.045 334.802 86.51 336.392 86.51ZM360.629 92.675C357.659 92.675 355.424 91.85 353.924 90.2C352.454 88.55 351.719 86.375 351.719 83.675V70.4H359.639V82.775C359.639 85.265 360.764 86.51 363.014 86.51C364.034 86.51 364.964 86.27 365.804 85.79C366.644 85.31 367.334 84.605 367.874 83.675V70.4H375.794V92H368.144V89.66C367.214 90.65 366.089 91.4 364.769 91.91C363.449 92.42 362.069 92.675 360.629 92.675ZM378.949 70.4H386.599V72.785C387.529 71.765 388.655 71 389.975 70.49C391.295 69.98 392.675 69.725 394.115 69.725C397.145 69.725 399.38 70.52 400.82 72.11C402.29 73.67 403.025 75.8 403.025 78.5V92H395.105V79.535C395.105 77.105 393.995 75.89 391.775 75.89C390.754 75.89 389.824 76.13 388.984 76.61C388.144 77.06 387.44 77.765 386.87 78.725V92H378.949V70.4ZM416.53 92.675C414.28 92.675 412.285 92.21 410.545 91.28C408.805 90.32 407.455 88.985 406.495 87.275C405.535 85.535 405.055 83.525 405.055 81.245C405.055 78.995 405.535 77 406.495 75.26C407.455 73.49 408.79 72.125 410.5 71.165C412.24 70.205 414.25 69.725 416.53 69.725C418.03 69.725 419.41 69.935 420.67 70.355C421.93 70.775 423.01 71.375 423.91 72.155V58.745H431.83V92H424.18V89.84C422.17 91.73 419.62 92.675 416.53 92.675ZM418.6 86.555C419.8 86.555 420.88 86.255 421.84 85.655C422.8 85.025 423.49 84.185 423.91 83.135V79.31C423.49 78.26 422.8 77.435 421.84 76.835C420.88 76.205 419.8 75.89 418.6 75.89C416.98 75.89 415.675 76.37 414.685 77.33C413.695 78.29 413.2 79.595 413.2 81.245C413.2 82.895 413.695 84.2 414.685 85.16C415.675 86.09 416.98 86.555 418.6 86.555ZM437.817 89.21H446.007L441.282 98.705H434.082L437.817 89.21ZM181.31 108.545H203.63V115.25H189.275V121.145H199.76V127.4H189.275V133.295H203.63V140H181.31V108.545ZM202.054 118.4H209.974L214.879 130.955L219.739 118.4H227.659L218.614 140H211.099L202.054 118.4ZM240.144 140.675C235.914 140.675 232.584 139.685 230.154 137.705C227.754 135.725 226.554 132.92 226.554 129.29C226.554 125.72 227.619 122.9 229.749 120.83C231.909 118.76 235.014 117.725 239.064 117.725C241.644 117.725 243.849 118.22 245.679 119.21C247.539 120.17 248.934 121.505 249.864 123.215C250.824 124.895 251.304 126.8 251.304 128.93V131.855H234.069C234.369 133.055 235.119 133.925 236.319 134.465C237.519 135.005 239.154 135.275 241.224 135.275C242.634 135.275 244.074 135.155 245.544 134.915C247.044 134.675 248.334 134.345 249.414 133.925V139.145C248.304 139.595 246.909 139.955 245.229 140.225C243.579 140.525 241.884 140.675 240.144 140.675ZM243.834 126.905C243.714 125.735 243.234 124.82 242.394 124.16C241.554 123.5 240.399 123.17 238.929 123.17C237.489 123.17 236.349 123.515 235.509 124.205C234.669 124.865 234.189 125.765 234.069 126.905H243.834ZM253.537 118.4H261.187V121.1C262.027 120.14 263.212 119.405 264.742 118.895C266.272 118.355 267.967 118.085 269.827 118.085V124.16C267.847 124.16 266.092 124.445 264.562 125.015C263.062 125.585 262.027 126.44 261.457 127.58V140H253.537V118.4ZM277.182 148.91C276.222 148.91 275.217 148.835 274.167 148.685C273.117 148.565 272.337 148.385 271.827 148.145V142.25C272.697 142.61 273.687 142.79 274.797 142.79C275.787 142.79 276.552 142.565 277.092 142.115C277.662 141.695 278.112 141.02 278.442 140.09L278.982 138.65L269.622 118.4H277.542L283.167 132.44L288.477 118.4H296.397L287.487 140.99C286.437 143.69 285.087 145.685 283.437 146.975C281.817 148.265 279.732 148.91 277.182 148.91ZM295.705 118.4H303.625L307.09 130.775L310.555 118.4H316.945L320.41 130.775L323.875 118.4H331.795L324.55 140H317.44L313.75 127.85L310.06 140H302.95L295.705 118.4ZM334.025 106.745H341.945V120.605C342.905 119.645 344 118.925 345.23 118.445C346.49 117.965 347.81 117.725 349.19 117.725C352.22 117.725 354.455 118.52 355.895 120.11C357.365 121.67 358.1 123.8 358.1 126.5V140H350.18V127.535C350.18 125.105 349.07 123.89 346.85 123.89C345.83 123.89 344.9 124.13 344.06 124.61C343.22 125.06 342.515 125.765 341.945 126.725V140H334.025V106.745ZM373.72 140.675C369.49 140.675 366.16 139.685 363.73 137.705C361.33 135.725 360.13 132.92 360.13 129.29C360.13 125.72 361.195 122.9 363.325 120.83C365.485 118.76 368.59 117.725 372.64 117.725C375.22 117.725 377.425 118.22 379.255 119.21C381.115 120.17 382.51 121.505 383.44 123.215C384.4 124.895 384.88 126.8 384.88 128.93V131.855H367.645C367.945 133.055 368.695 133.925 369.895 134.465C371.095 135.005 372.73 135.275 374.8 135.275C376.21 135.275 377.65 135.155 379.12 134.915C380.62 134.675 381.91 134.345 382.99 133.925V139.145C381.88 139.595 380.485 139.955 378.805 140.225C377.155 140.525 375.46 140.675 373.72 140.675ZM377.41 126.905C377.29 125.735 376.81 124.82 375.97 124.16C375.13 123.5 373.975 123.17 372.505 123.17C371.065 123.17 369.925 123.515 369.085 124.205C368.245 124.865 367.765 125.765 367.645 126.905H377.41ZM387.113 118.4H394.763V121.1C395.603 120.14 396.788 119.405 398.318 118.895C399.848 118.355 401.543 118.085 403.403 118.085V124.16C401.423 124.16 399.668 124.445 398.138 125.015C396.638 125.585 395.603 126.44 395.033 127.58V140H387.113V118.4ZM417.448 140.675C413.218 140.675 409.888 139.685 407.458 137.705C405.058 135.725 403.858 132.92 403.858 129.29C403.858 125.72 404.923 122.9 407.053 120.83C409.213 118.76 412.318 117.725 416.368 117.725C418.948 117.725 421.153 118.22 422.983 119.21C424.843 120.17 426.238 121.505 427.168 123.215C428.128 124.895 428.608 126.8 428.608 128.93V131.855H411.373C411.673 133.055 412.423 133.925 413.623 134.465C414.823 135.005 416.458 135.275 418.528 135.275C419.938 135.275 421.378 135.155 422.848 134.915C424.348 134.675 425.638 134.345 426.718 133.925V139.145C425.608 139.595 424.213 139.955 422.533 140.225C420.883 140.525 419.188 140.675 417.448 140.675ZM421.138 126.905C421.018 125.735 420.538 124.82 419.698 124.16C418.858 123.5 417.703 123.17 416.233 123.17C414.793 123.17 413.653 123.515 412.813 124.205C411.973 124.865 411.493 125.765 411.373 126.905H421.138Z" fill="black"/>
<rect x="202" y="387" width="214" height="53" rx="26.5" fill="#5E1EE5"/>
<path d="M240.68 419V407.8H245.4C246.595 407.8 247.645 408.035 248.552 408.504C249.469 408.973 250.179 409.629 250.68 410.472C251.192 411.315 251.448 412.291 251.448 413.4C251.448 414.509 251.192 415.485 250.68 416.328C250.179 417.171 249.469 417.827 248.552 418.296C247.645 418.765 246.595 419 245.4 419H240.68ZM242.28 417.608H245.304C246.232 417.608 247.032 417.432 247.704 417.08C248.387 416.728 248.915 416.237 249.288 415.608C249.661 414.968 249.848 414.232 249.848 413.4C249.848 412.557 249.661 411.821 249.288 411.192C248.915 410.563 248.387 410.072 247.704 409.72C247.032 409.368 246.232 409.192 245.304 409.192H242.28V417.608ZM253.675 419V410.52H255.211V419H253.675ZM254.443 408.888C254.144 408.888 253.893 408.792 253.691 408.6C253.499 408.408 253.403 408.173 253.403 407.896C253.403 407.608 253.499 407.368 253.691 407.176C253.893 406.984 254.144 406.888 254.443 406.888C254.741 406.888 254.987 406.984 255.179 407.176C255.381 407.357 255.483 407.587 255.483 407.864C255.483 408.152 255.387 408.397 255.195 408.6C255.003 408.792 254.752 408.888 254.443 408.888ZM260.576 419.096C259.872 419.096 259.2 419 258.56 418.808C257.93 418.616 257.434 418.381 257.072 418.104L257.712 416.888C258.074 417.133 258.522 417.341 259.056 417.512C259.589 417.683 260.133 417.768 260.688 417.768C261.402 417.768 261.914 417.667 262.224 417.464C262.544 417.261 262.704 416.979 262.704 416.616C262.704 416.349 262.608 416.141 262.416 415.992C262.224 415.843 261.968 415.731 261.648 415.656C261.338 415.581 260.992 415.517 260.608 415.464C260.224 415.4 259.84 415.325 259.456 415.24C259.072 415.144 258.72 415.016 258.4 414.856C258.08 414.685 257.824 414.456 257.632 414.168C257.44 413.869 257.344 413.475 257.344 412.984C257.344 412.472 257.488 412.024 257.776 411.64C258.064 411.256 258.469 410.963 258.992 410.76C259.525 410.547 260.154 410.44 260.88 410.44C261.434 410.44 261.994 410.509 262.56 410.648C263.136 410.776 263.605 410.963 263.968 411.208L263.312 412.424C262.928 412.168 262.528 411.992 262.112 411.896C261.696 411.8 261.28 411.752 260.864 411.752C260.192 411.752 259.69 411.864 259.36 412.088C259.029 412.301 258.864 412.579 258.864 412.92C258.864 413.208 258.96 413.432 259.152 413.592C259.354 413.741 259.61 413.859 259.92 413.944C260.24 414.029 260.592 414.104 260.976 414.168C261.36 414.221 261.744 414.296 262.128 414.392C262.512 414.477 262.858 414.6 263.168 414.76C263.488 414.92 263.744 415.144 263.936 415.432C264.138 415.72 264.24 416.104 264.24 416.584C264.24 417.096 264.09 417.539 263.792 417.912C263.493 418.285 263.072 418.579 262.528 418.792C261.984 418.995 261.333 419.096 260.576 419.096ZM269.855 419.096C268.991 419.096 268.218 418.909 267.535 418.536C266.863 418.163 266.335 417.651 265.951 417C265.567 416.349 265.375 415.603 265.375 414.76C265.375 413.917 265.567 413.171 265.951 412.52C266.335 411.869 266.863 411.363 267.535 411C268.218 410.627 268.991 410.44 269.855 410.44C270.623 410.44 271.306 410.595 271.903 410.904C272.511 411.203 272.98 411.651 273.311 412.248L272.143 413C271.866 412.584 271.524 412.28 271.119 412.088C270.724 411.885 270.298 411.784 269.839 411.784C269.284 411.784 268.788 411.907 268.351 412.152C267.914 412.397 267.567 412.744 267.311 413.192C267.055 413.629 266.927 414.152 266.927 414.76C266.927 415.368 267.055 415.896 267.311 416.344C267.567 416.792 267.914 417.139 268.351 417.384C268.788 417.629 269.284 417.752 269.839 417.752C270.298 417.752 270.724 417.656 271.119 417.464C271.524 417.261 271.866 416.952 272.143 416.536L273.311 417.272C272.98 417.859 272.511 418.312 271.903 418.632C271.306 418.941 270.623 419.096 269.855 419.096ZM278.807 419.096C277.953 419.096 277.196 418.909 276.535 418.536C275.873 418.163 275.351 417.651 274.967 417C274.583 416.339 274.391 415.592 274.391 414.76C274.391 413.917 274.583 413.171 274.967 412.52C275.351 411.869 275.873 411.363 276.535 411C277.196 410.627 277.953 410.44 278.807 410.44C279.649 410.44 280.401 410.627 281.063 411C281.735 411.363 282.257 411.869 282.631 412.52C283.015 413.16 283.207 413.907 283.207 414.76C283.207 415.603 283.015 416.349 282.631 417C282.257 417.651 281.735 418.163 281.063 418.536C280.401 418.909 279.649 419.096 278.807 419.096ZM278.807 417.752C279.351 417.752 279.836 417.629 280.263 417.384C280.7 417.139 281.041 416.792 281.287 416.344C281.532 415.885 281.655 415.357 281.655 414.76C281.655 414.152 281.532 413.629 281.287 413.192C281.041 412.744 280.7 412.397 280.263 412.152C279.836 411.907 279.351 411.784 278.807 411.784C278.263 411.784 277.777 411.907 277.351 412.152C276.924 412.397 276.583 412.744 276.327 413.192C276.071 413.629 275.943 414.152 275.943 414.76C275.943 415.357 276.071 415.885 276.327 416.344C276.583 416.792 276.924 417.139 277.351 417.384C277.777 417.629 278.263 417.752 278.807 417.752ZM287.321 419L283.609 410.52H285.209L288.505 418.2H287.737L291.097 410.52H292.601L288.889 419H287.321ZM297.576 419.096C296.669 419.096 295.869 418.909 295.176 418.536C294.493 418.163 293.96 417.651 293.576 417C293.202 416.349 293.016 415.603 293.016 414.76C293.016 413.917 293.197 413.171 293.56 412.52C293.933 411.869 294.44 411.363 295.08 411C295.73 410.627 296.461 410.44 297.272 410.44C298.093 410.44 298.818 410.621 299.448 410.984C300.077 411.347 300.568 411.859 300.92 412.52C301.282 413.171 301.464 413.933 301.464 414.808C301.464 414.872 301.458 414.947 301.448 415.032C301.448 415.117 301.442 415.197 301.432 415.272H294.216V414.168H300.632L300.008 414.552C300.018 414.008 299.906 413.523 299.672 413.096C299.437 412.669 299.112 412.339 298.696 412.104C298.29 411.859 297.816 411.736 297.272 411.736C296.738 411.736 296.264 411.859 295.848 412.104C295.432 412.339 295.106 412.675 294.872 413.112C294.637 413.539 294.52 414.029 294.52 414.584V414.84C294.52 415.405 294.648 415.912 294.904 416.36C295.17 416.797 295.538 417.139 296.008 417.384C296.477 417.629 297.016 417.752 297.624 417.752C298.125 417.752 298.578 417.667 298.984 417.496C299.4 417.325 299.762 417.069 300.072 416.728L300.92 417.72C300.536 418.168 300.056 418.509 299.48 418.744C298.914 418.979 298.28 419.096 297.576 419.096ZM303.597 419V410.52H305.069V412.824L304.925 412.248C305.159 411.661 305.554 411.213 306.109 410.904C306.663 410.595 307.346 410.44 308.157 410.44V411.928C308.093 411.917 308.029 411.912 307.965 411.912C307.911 411.912 307.858 411.912 307.805 411.912C306.983 411.912 306.333 412.157 305.853 412.648C305.373 413.139 305.133 413.848 305.133 414.776V419H303.597ZM314.68 419V407.8H315.992L323.4 417H322.712V407.8H324.312V419H323L315.592 409.8H316.28V419H314.68ZM331.072 419.096C330.219 419.096 329.462 418.909 328.8 418.536C328.139 418.163 327.616 417.651 327.232 417C326.848 416.339 326.656 415.592 326.656 414.76C326.656 413.917 326.848 413.171 327.232 412.52C327.616 411.869 328.139 411.363 328.8 411C329.462 410.627 330.219 410.44 331.072 410.44C331.915 410.44 332.667 410.627 333.328 411C334 411.363 334.523 411.869 334.896 412.52C335.28 413.16 335.472 413.907 335.472 414.76C335.472 415.603 335.28 416.349 334.896 417C334.523 417.651 334 418.163 333.328 418.536C332.667 418.909 331.915 419.096 331.072 419.096ZM331.072 417.752C331.616 417.752 332.102 417.629 332.528 417.384C332.966 417.139 333.307 416.792 333.552 416.344C333.798 415.885 333.92 415.357 333.92 414.76C333.92 414.152 333.798 413.629 333.552 413.192C333.307 412.744 332.966 412.397 332.528 412.152C332.102 411.907 331.616 411.784 331.072 411.784C330.528 411.784 330.043 411.907 329.616 412.152C329.19 412.397 328.848 412.744 328.592 413.192C328.336 413.629 328.208 414.152 328.208 414.76C328.208 415.357 328.336 415.885 328.592 416.344C328.848 416.792 329.19 417.139 329.616 417.384C330.043 417.629 330.528 417.752 331.072 417.752ZM339.154 419L336.002 410.52H337.458L340.258 418.2H339.57L342.482 410.52H343.778L346.626 418.2H345.954L348.818 410.52H350.194L347.026 419H345.554L342.882 411.992H343.33L340.626 419H339.154Z" fill="white"/>
<path d="M364.75 413.5H375.25" stroke="white" stroke-width="2" stroke-linecap="round" stroke-linejoin="round"/>
<path d="M370 408.25L375.25 413.5L370 418.75" stroke="white" stroke-width="2" stroke-linecap="round" stroke-linejoin="round"/>
</svg>
