<svg width="712" height="490" viewBox="0 0 712 490" fill="none" xmlns="http://www.w3.org/2000/svg">
<rect width="712" height="490" rx="21" fill="#F3F4F6"/>
<rect x="45" y="216" width="371" height="243" fill="#D9D9D9"/>
<rect x="469" y="327" width="214" height="53" rx="26.5" fill="#5E1EE5"/>
<path d="M507.68 359V347.8H512.4C513.595 347.8 514.645 348.035 515.552 348.504C516.469 348.973 517.179 349.629 517.68 350.472C518.192 351.315 518.448 352.291 518.448 353.4C518.448 354.509 518.192 355.485 517.68 356.328C517.179 357.171 516.469 357.827 515.552 358.296C514.645 358.765 513.595 359 512.4 359H507.68ZM509.28 357.608H512.304C513.232 357.608 514.032 357.432 514.704 357.08C515.387 356.728 515.915 356.237 516.288 355.608C516.661 354.968 516.848 354.232 516.848 353.4C516.848 352.557 516.661 351.821 516.288 351.192C515.915 350.563 515.387 350.072 514.704 349.72C514.032 349.368 513.232 349.192 512.304 349.192H509.28V357.608ZM520.675 359V350.52H522.211V359H520.675ZM521.443 348.888C521.144 348.888 520.893 348.792 520.691 348.6C520.499 348.408 520.403 348.173 520.403 347.896C520.403 347.608 520.499 347.368 520.691 347.176C520.893 346.984 521.144 346.888 521.443 346.888C521.741 346.888 521.987 346.984 522.179 347.176C522.381 347.357 522.483 347.587 522.483 347.864C522.483 348.152 522.387 348.397 522.195 348.6C522.003 348.792 521.752 348.888 521.443 348.888ZM527.576 359.096C526.872 359.096 526.2 359 525.56 358.808C524.93 358.616 524.434 358.381 524.072 358.104L524.712 356.888C525.074 357.133 525.522 357.341 526.056 357.512C526.589 357.683 527.133 357.768 527.688 357.768C528.402 357.768 528.914 357.667 529.224 357.464C529.544 357.261 529.704 356.979 529.704 356.616C529.704 356.349 529.608 356.141 529.416 355.992C529.224 355.843 528.968 355.731 528.648 355.656C528.338 355.581 527.992 355.517 527.608 355.464C527.224 355.4 526.84 355.325 526.456 355.24C526.072 355.144 525.72 355.016 525.4 354.856C525.08 354.685 524.824 354.456 524.632 354.168C524.44 353.869 524.344 353.475 524.344 352.984C524.344 352.472 524.488 352.024 524.776 351.64C525.064 351.256 525.469 350.963 525.992 350.76C526.525 350.547 527.154 350.44 527.88 350.44C528.434 350.44 528.994 350.509 529.56 350.648C530.136 350.776 530.605 350.963 530.968 351.208L530.312 352.424C529.928 352.168 529.528 351.992 529.112 351.896C528.696 351.8 528.28 351.752 527.864 351.752C527.192 351.752 526.69 351.864 526.36 352.088C526.029 352.301 525.864 352.579 525.864 352.92C525.864 353.208 525.96 353.432 526.152 353.592C526.354 353.741 526.61 353.859 526.92 353.944C527.24 354.029 527.592 354.104 527.976 354.168C528.36 354.221 528.744 354.296 529.128 354.392C529.512 354.477 529.858 354.6 530.168 354.76C530.488 354.92 530.744 355.144 530.936 355.432C531.138 355.72 531.24 356.104 531.24 356.584C531.24 357.096 531.09 357.539 530.792 357.912C530.493 358.285 530.072 358.579 529.528 358.792C528.984 358.995 528.333 359.096 527.576 359.096ZM536.855 359.096C535.991 359.096 535.218 358.909 534.535 358.536C533.863 358.163 533.335 357.651 532.951 357C532.567 356.349 532.375 355.603 532.375 354.76C532.375 353.917 532.567 353.171 532.951 352.52C533.335 351.869 533.863 351.363 534.535 351C535.218 350.627 535.991 350.44 536.855 350.44C537.623 350.44 538.306 350.595 538.903 350.904C539.511 351.203 539.98 351.651 540.311 352.248L539.143 353C538.866 352.584 538.524 352.28 538.119 352.088C537.724 351.885 537.298 351.784 536.839 351.784C536.284 351.784 535.788 351.907 535.351 352.152C534.914 352.397 534.567 352.744 534.311 353.192C534.055 353.629 533.927 354.152 533.927 354.76C533.927 355.368 534.055 355.896 534.311 356.344C534.567 356.792 534.914 357.139 535.351 357.384C535.788 357.629 536.284 357.752 536.839 357.752C537.298 357.752 537.724 357.656 538.119 357.464C538.524 357.261 538.866 356.952 539.143 356.536L540.311 357.272C539.98 357.859 539.511 358.312 538.903 358.632C538.306 358.941 537.623 359.096 536.855 359.096ZM545.807 359.096C544.953 359.096 544.196 358.909 543.535 358.536C542.873 358.163 542.351 357.651 541.967 357C541.583 356.339 541.391 355.592 541.391 354.76C541.391 353.917 541.583 353.171 541.967 352.52C542.351 351.869 542.873 351.363 543.535 351C544.196 350.627 544.953 350.44 545.807 350.44C546.649 350.44 547.401 350.627 548.063 351C548.735 351.363 549.257 351.869 549.631 352.52C550.015 353.16 550.207 353.907 550.207 354.76C550.207 355.603 550.015 356.349 549.631 357C549.257 357.651 548.735 358.163 548.063 358.536C547.401 358.909 546.649 359.096 545.807 359.096ZM545.807 357.752C546.351 357.752 546.836 357.629 547.263 357.384C547.7 357.139 548.041 356.792 548.287 356.344C548.532 355.885 548.655 355.357 548.655 354.76C548.655 354.152 548.532 353.629 548.287 353.192C548.041 352.744 547.7 352.397 547.263 352.152C546.836 351.907 546.351 351.784 545.807 351.784C545.263 351.784 544.777 351.907 544.351 352.152C543.924 352.397 543.583 352.744 543.327 353.192C543.071 353.629 542.943 354.152 542.943 354.76C542.943 355.357 543.071 355.885 543.327 356.344C543.583 356.792 543.924 357.139 544.351 357.384C544.777 357.629 545.263 357.752 545.807 357.752ZM554.321 359L550.609 350.52H552.209L555.505 358.2H554.737L558.097 350.52H559.601L555.889 359H554.321ZM564.576 359.096C563.669 359.096 562.869 358.909 562.176 358.536C561.493 358.163 560.96 357.651 560.576 357C560.202 356.349 560.016 355.603 560.016 354.76C560.016 353.917 560.197 353.171 560.56 352.52C560.933 351.869 561.44 351.363 562.08 351C562.73 350.627 563.461 350.44 564.272 350.44C565.093 350.44 565.818 350.621 566.448 350.984C567.077 351.347 567.568 351.859 567.92 352.52C568.282 353.171 568.464 353.933 568.464 354.808C568.464 354.872 568.458 354.947 568.448 355.032C568.448 355.117 568.442 355.197 568.432 355.272H561.216V354.168H567.632L567.008 354.552C567.018 354.008 566.906 353.523 566.672 353.096C566.437 352.669 566.112 352.339 565.696 352.104C565.29 351.859 564.816 351.736 564.272 351.736C563.738 351.736 563.264 351.859 562.848 352.104C562.432 352.339 562.106 352.675 561.872 353.112C561.637 353.539 561.52 354.029 561.52 354.584V354.84C561.52 355.405 561.648 355.912 561.904 356.36C562.17 356.797 562.538 357.139 563.008 357.384C563.477 357.629 564.016 357.752 564.624 357.752C565.125 357.752 565.578 357.667 565.984 357.496C566.4 357.325 566.762 357.069 567.072 356.728L567.92 357.72C567.536 358.168 567.056 358.509 566.48 358.744C565.914 358.979 565.28 359.096 564.576 359.096ZM570.597 359V350.52H572.069V352.824L571.925 352.248C572.159 351.661 572.554 351.213 573.109 350.904C573.663 350.595 574.346 350.44 575.157 350.44V351.928C575.093 351.917 575.029 351.912 574.965 351.912C574.911 351.912 574.858 351.912 574.805 351.912C573.983 351.912 573.333 352.157 572.853 352.648C572.373 353.139 572.133 353.848 572.133 354.776V359H570.597ZM581.68 359V347.8H582.992L590.4 357H589.712V347.8H591.312V359H590L582.592 349.8H583.28V359H581.68ZM598.072 359.096C597.219 359.096 596.462 358.909 595.8 358.536C595.139 358.163 594.616 357.651 594.232 357C593.848 356.339 593.656 355.592 593.656 354.76C593.656 353.917 593.848 353.171 594.232 352.52C594.616 351.869 595.139 351.363 595.8 351C596.462 350.627 597.219 350.44 598.072 350.44C598.915 350.44 599.667 350.627 600.328 351C601 351.363 601.523 351.869 601.896 352.52C602.28 353.16 602.472 353.907 602.472 354.76C602.472 355.603 602.28 356.349 601.896 357C601.523 357.651 601 358.163 600.328 358.536C599.667 358.909 598.915 359.096 598.072 359.096ZM598.072 357.752C598.616 357.752 599.102 357.629 599.528 357.384C599.966 357.139 600.307 356.792 600.552 356.344C600.798 355.885 600.92 355.357 600.92 354.76C600.92 354.152 600.798 353.629 600.552 353.192C600.307 352.744 599.966 352.397 599.528 352.152C599.102 351.907 598.616 351.784 598.072 351.784C597.528 351.784 597.043 351.907 596.616 352.152C596.19 352.397 595.848 352.744 595.592 353.192C595.336 353.629 595.208 354.152 595.208 354.76C595.208 355.357 595.336 355.885 595.592 356.344C595.848 356.792 596.19 357.139 596.616 357.384C597.043 357.629 597.528 357.752 598.072 357.752ZM606.154 359L603.002 350.52H604.458L607.258 358.2H606.57L609.482 350.52H610.778L613.626 358.2H612.954L615.818 350.52H617.194L614.026 359H612.554L609.882 351.992H610.33L607.626 359H606.154Z" fill="white"/>
<path d="M631.75 353.5H642.25" stroke="white" stroke-width="2" stroke-linecap="round" stroke-linejoin="round"/>
<path d="M637 348.25L642.25 353.5L637 358.75" stroke="white" stroke-width="2" stroke-linecap="round" stroke-linejoin="round"/>
<path d="M332.925 79.65H321.696V71.157H354.3V79.65H343.014V111H332.925V79.65ZM351.997 83.64H361.687V87.06C362.751 85.844 364.252 84.913 366.19 84.267C368.128 83.583 370.275 83.241 372.631 83.241V90.936C370.123 90.936 367.9 91.297 365.962 92.019C364.062 92.741 362.751 93.824 362.029 95.268V111H351.997V83.64ZM382.104 111.855C378.684 111.855 375.91 111.038 373.782 109.404C371.692 107.732 370.647 105.414 370.647 102.45C370.647 99.372 371.654 97.016 373.668 95.382C375.72 93.71 378.646 92.874 382.446 92.874C383.928 92.874 385.41 93.045 386.892 93.387C388.374 93.691 389.647 94.109 390.711 94.641V94.071C390.711 91.145 388.317 89.682 383.529 89.682C380.185 89.682 377.126 90.328 374.352 91.62V84.723C375.568 84.153 377.164 83.697 379.14 83.355C381.116 82.975 383.168 82.785 385.296 82.785C390.388 82.785 394.226 83.811 396.81 85.863C399.432 87.877 400.743 90.708 400.743 94.356V111H391.338V108.663C390.312 109.651 389.02 110.43 387.462 111C385.904 111.57 384.118 111.855 382.104 111.855ZM385.068 105.699C386.246 105.699 387.348 105.471 388.374 105.015C389.4 104.521 390.179 103.894 390.711 103.134V100.74C389.077 99.638 387.215 99.087 385.125 99.087C383.795 99.087 382.769 99.372 382.047 99.942C381.325 100.512 380.964 101.348 380.964 102.45C380.964 103.476 381.306 104.274 381.99 104.844C382.712 105.414 383.738 105.699 385.068 105.699ZM400.735 83.64H410.767L416.98 99.543L423.136 83.64H433.168L421.711 111H412.192L400.735 83.64ZM448.982 111.855C443.624 111.855 439.406 110.601 436.328 108.093C433.288 105.585 431.768 102.032 431.768 97.434C431.768 92.912 433.117 89.34 435.815 86.718C438.551 84.096 442.484 82.785 447.614 82.785C450.882 82.785 453.675 83.412 455.993 84.666C458.349 85.882 460.116 87.573 461.294 89.739C462.51 91.867 463.118 94.28 463.118 96.978V100.683H441.287C441.667 102.203 442.617 103.305 444.137 103.989C445.657 104.673 447.728 105.015 450.35 105.015C452.136 105.015 453.96 104.863 455.822 104.559C457.722 104.255 459.356 103.837 460.724 103.305V109.917C459.318 110.487 457.551 110.943 455.423 111.285C453.333 111.665 451.186 111.855 448.982 111.855ZM453.656 94.413C453.504 92.931 452.896 91.772 451.832 90.936C450.768 90.1 449.305 89.682 447.443 89.682C445.619 89.682 444.175 90.119 443.111 90.993C442.047 91.829 441.439 92.969 441.287 94.413H453.656ZM465.946 68.877H475.978V111H465.946V68.877ZM491.746 111.855C489.542 111.855 487.243 111.627 484.849 111.171C482.455 110.753 480.555 110.145 479.149 109.347V101.994C480.707 102.906 482.569 103.666 484.735 104.274C486.939 104.844 488.953 105.129 490.777 105.129C492.107 105.129 493.076 105.034 493.684 104.844C494.292 104.654 494.596 104.274 494.596 103.704C494.596 103.248 494.387 102.887 493.969 102.621C493.589 102.317 492.867 102.013 491.803 101.709C490.777 101.367 489.58 101.006 488.212 100.626C485.894 99.942 484.07 99.239 482.74 98.517C481.41 97.795 480.422 96.883 479.776 95.781C479.13 94.679 478.807 93.292 478.807 91.62C478.807 88.656 479.966 86.452 482.284 85.008C484.64 83.526 487.851 82.785 491.917 82.785C493.893 82.785 495.964 82.994 498.13 83.412C500.334 83.83 501.987 84.381 503.089 85.065V92.304C501.949 91.544 500.429 90.917 498.529 90.423C496.667 89.929 494.919 89.682 493.285 89.682C491.993 89.682 490.986 89.815 490.264 90.081C489.542 90.309 489.181 90.727 489.181 91.335C489.181 91.905 489.542 92.342 490.264 92.646C490.986 92.95 492.278 93.33 494.14 93.786C495.356 94.09 495.869 94.223 495.679 94.185C498.111 94.831 499.992 95.553 501.322 96.351C502.652 97.149 503.583 98.099 504.115 99.201C504.685 100.265 504.97 101.633 504.97 103.305C504.97 105.927 503.83 108.017 501.55 109.575C499.308 111.095 496.04 111.855 491.746 111.855ZM526.039 71.157H536.128V102.507H553.456V111H526.039V71.157ZM560.538 79.992C559.018 79.992 557.745 79.498 556.719 78.51C555.693 77.522 555.18 76.268 555.18 74.748C555.18 73.266 555.693 72.031 556.719 71.043C557.745 70.017 559.018 69.504 560.538 69.504C562.02 69.504 563.274 70.017 564.3 71.043C565.364 72.031 565.896 73.266 565.896 74.748C565.896 76.23 565.364 77.484 564.3 78.51C563.274 79.498 562.02 79.992 560.538 79.992ZM555.522 83.64H565.554V111H555.522V83.64ZM584.781 124.11C582.957 124.11 581.114 123.939 579.252 123.597C577.428 123.255 575.851 122.799 574.521 122.229V115.275C577.523 116.567 580.943 117.213 584.781 117.213C587.555 117.213 589.55 116.643 590.766 115.503C592.02 114.363 592.647 112.691 592.647 110.487V108.834C591.545 109.784 590.177 110.525 588.543 111.057C586.947 111.589 585.237 111.855 583.413 111.855C580.525 111.855 577.979 111.247 575.775 110.031C573.571 108.815 571.842 107.105 570.588 104.901C569.372 102.697 568.764 100.17 568.764 97.32C568.764 94.432 569.372 91.886 570.588 89.682C571.804 87.478 573.514 85.787 575.718 84.609C577.922 83.393 580.449 82.785 583.299 82.785C587.213 82.785 590.443 83.982 592.989 86.376V83.64H602.679V109.119C602.679 113.869 601.216 117.555 598.29 120.177C595.402 122.799 590.899 124.11 584.781 124.11ZM585.921 104.103C587.479 104.103 588.866 103.704 590.082 102.906C591.298 102.108 592.153 101.044 592.647 99.714V94.926C592.115 93.596 591.241 92.551 590.025 91.791C588.809 90.993 587.441 90.594 585.921 90.594C583.869 90.594 582.216 91.202 580.962 92.418C579.708 93.596 579.081 95.211 579.081 97.263C579.081 99.353 579.708 101.025 580.962 102.279C582.216 103.495 583.869 104.103 585.921 104.103ZM606.672 68.877H616.704V86.433C617.92 85.217 619.307 84.305 620.865 83.697C622.461 83.089 624.133 82.785 625.881 82.785C629.719 82.785 632.55 83.792 634.374 85.806C636.236 87.782 637.167 90.48 637.167 93.9V111H627.135V95.211C627.135 92.133 625.729 90.594 622.917 90.594C621.625 90.594 620.447 90.898 619.383 91.506C618.319 92.076 617.426 92.969 616.704 94.185V111H606.672V68.877ZM652.734 111.855C649.352 111.855 646.787 110.924 645.039 109.062C643.329 107.162 642.474 104.578 642.474 101.31V90.594H638.598V83.64H642.474V75.432H652.506V83.64H658.776V90.594H652.506V99.942C652.506 101.424 652.772 102.488 653.304 103.134C653.874 103.78 654.862 104.103 656.268 104.103C657.522 104.103 658.776 103.761 660.03 103.077V110.544C659.042 111 657.978 111.323 656.838 111.513C655.736 111.741 654.368 111.855 652.734 111.855ZM665.316 107.466H675.69L669.705 119.493H660.585L665.316 107.466ZM303.696 178.855C301.188 178.855 298.699 178.608 296.229 178.114C293.759 177.658 291.726 177.012 290.13 176.176V167.113C292.182 168.177 294.31 168.975 296.514 169.507C298.756 170.039 300.884 170.305 302.898 170.305C304.76 170.305 306.166 170.02 307.116 169.45C308.066 168.88 308.541 168.063 308.541 166.999C308.541 166.201 308.275 165.517 307.743 164.947C307.249 164.339 306.508 163.788 305.52 163.294C304.532 162.8 302.993 162.116 300.903 161.242C297.217 159.684 294.538 157.955 292.866 156.055C291.194 154.155 290.358 151.818 290.358 149.044C290.358 146.764 290.985 144.731 292.239 142.945C293.531 141.159 295.317 139.772 297.597 138.784C299.877 137.796 302.499 137.302 305.463 137.302C307.895 137.302 310.061 137.492 311.961 137.872C313.861 138.252 315.685 138.86 317.433 139.696V148.531C314.089 146.783 310.726 145.909 307.344 145.909C305.52 145.909 304.057 146.213 302.955 146.821C301.891 147.391 301.359 148.227 301.359 149.329C301.359 150.431 301.91 151.324 303.012 152.008C304.114 152.692 306.147 153.623 309.111 154.801C311.809 155.903 313.899 156.986 315.381 158.05C316.901 159.114 318.003 160.349 318.687 161.755C319.371 163.161 319.713 164.947 319.713 167.113C319.713 170.799 318.364 173.687 315.666 175.777C313.006 177.829 309.016 178.855 303.696 178.855ZM337.479 178.855C334.097 178.855 331.133 178.247 328.587 177.031C326.041 175.777 324.065 174.067 322.659 171.901C321.291 169.697 320.607 167.17 320.607 164.32C320.607 161.47 321.291 158.962 322.659 156.796C324.065 154.592 326.041 152.882 328.587 151.666C331.133 150.412 334.097 149.785 337.479 149.785C340.861 149.785 343.825 150.412 346.371 151.666C348.917 152.882 350.874 154.592 352.242 156.796C353.648 158.962 354.351 161.47 354.351 164.32C354.351 167.17 353.648 169.697 352.242 171.901C350.874 174.067 348.917 175.777 346.371 177.031C343.825 178.247 340.861 178.855 337.479 178.855ZM337.479 171.046C339.493 171.046 341.089 170.457 342.267 169.279C343.483 168.063 344.091 166.41 344.091 164.32C344.091 162.23 343.483 160.596 342.267 159.418C341.089 158.202 339.493 157.594 337.479 157.594C335.465 157.594 333.85 158.202 332.634 159.418C331.456 160.596 330.867 162.23 330.867 164.32C330.867 166.41 331.456 168.063 332.634 169.279C333.85 170.457 335.465 171.046 337.479 171.046ZM368.18 178.855C364.418 178.855 361.587 177.81 359.687 175.72C357.825 173.63 356.894 170.875 356.894 167.455V150.64H366.926V166.315C366.926 169.469 368.351 171.046 371.201 171.046C372.493 171.046 373.671 170.742 374.735 170.134C375.799 169.526 376.673 168.633 377.357 167.455V150.64H387.389V178H377.699V175.036C376.521 176.29 375.096 177.24 373.424 177.886C371.752 178.532 370.004 178.855 368.18 178.855ZM391.385 150.64H401.075V153.661C402.253 152.369 403.678 151.4 405.35 150.754C407.022 150.108 408.77 149.785 410.594 149.785C414.432 149.785 417.263 150.792 419.087 152.806C420.949 154.782 421.88 157.48 421.88 160.9V178H411.848V162.211C411.848 159.133 410.442 157.594 407.63 157.594C406.338 157.594 405.16 157.898 404.096 158.506C403.032 159.076 402.139 159.969 401.417 161.185V178H391.385V150.64ZM438.987 178.855C436.137 178.855 433.61 178.266 431.406 177.088C429.202 175.872 427.492 174.181 426.276 172.015C425.06 169.811 424.452 167.265 424.452 164.377C424.452 161.527 425.06 159 426.276 156.796C427.492 154.554 429.183 152.825 431.349 151.609C433.553 150.393 436.099 149.785 438.987 149.785C440.887 149.785 442.635 150.051 444.231 150.583C445.827 151.115 447.195 151.875 448.335 152.863V135.877H458.367V178H448.677V175.264C446.131 177.658 442.901 178.855 438.987 178.855ZM441.609 171.103C443.129 171.103 444.497 170.723 445.713 169.963C446.929 169.165 447.803 168.101 448.335 166.771V161.926C447.803 160.596 446.929 159.551 445.713 158.791C444.497 157.993 443.129 157.594 441.609 157.594C439.557 157.594 437.904 158.202 436.65 159.418C435.396 160.634 434.769 162.287 434.769 164.377C434.769 166.467 435.396 168.12 436.65 169.336C437.904 170.514 439.557 171.103 441.609 171.103ZM474.158 178.855C471.954 178.855 469.655 178.627 467.261 178.171C464.867 177.753 462.967 177.145 461.561 176.347V168.994C463.119 169.906 464.981 170.666 467.147 171.274C469.351 171.844 471.365 172.129 473.189 172.129C474.519 172.129 475.488 172.034 476.096 171.844C476.704 171.654 477.008 171.274 477.008 170.704C477.008 170.248 476.799 169.887 476.381 169.621C476.001 169.317 475.279 169.013 474.215 168.709C473.189 168.367 471.992 168.006 470.624 167.626C468.306 166.942 466.482 166.239 465.152 165.517C463.822 164.795 462.834 163.883 462.188 162.781C461.542 161.679 461.219 160.292 461.219 158.62C461.219 155.656 462.378 153.452 464.696 152.008C467.052 150.526 470.263 149.785 474.329 149.785C476.305 149.785 478.376 149.994 480.542 150.412C482.746 150.83 484.399 151.381 485.501 152.065V159.304C484.361 158.544 482.841 157.917 480.941 157.423C479.079 156.929 477.331 156.682 475.697 156.682C474.405 156.682 473.398 156.815 472.676 157.081C471.954 157.309 471.593 157.727 471.593 158.335C471.593 158.905 471.954 159.342 472.676 159.646C473.398 159.95 474.69 160.33 476.552 160.786C477.768 161.09 478.281 161.223 478.091 161.185C480.523 161.831 482.404 162.553 483.734 163.351C485.064 164.149 485.995 165.099 486.527 166.201C487.097 167.265 487.382 168.633 487.382 170.305C487.382 172.927 486.242 175.017 483.962 176.575C481.72 178.095 478.452 178.855 474.158 178.855ZM508.451 138.157H518.54V153.547H534.158V138.157H544.247V178H534.158V161.926H518.54V178H508.451V138.157ZM564.298 178.855C558.94 178.855 554.722 177.601 551.644 175.093C548.604 172.585 547.084 169.032 547.084 164.434C547.084 159.912 548.433 156.34 551.131 153.718C553.867 151.096 557.8 149.785 562.93 149.785C566.198 149.785 568.991 150.412 571.309 151.666C573.665 152.882 575.432 154.573 576.61 156.739C577.826 158.867 578.434 161.28 578.434 163.978V167.683H556.603C556.983 169.203 557.933 170.305 559.453 170.989C560.973 171.673 563.044 172.015 565.666 172.015C567.452 172.015 569.276 171.863 571.138 171.559C573.038 171.255 574.672 170.837 576.04 170.305V176.917C574.634 177.487 572.867 177.943 570.739 178.285C568.649 178.665 566.502 178.855 564.298 178.855ZM568.972 161.413C568.82 159.931 568.212 158.772 567.148 157.936C566.084 157.1 564.621 156.682 562.759 156.682C560.935 156.682 559.491 157.119 558.427 157.993C557.363 158.829 556.755 159.969 556.603 161.413H568.972ZM591.579 178.855C588.159 178.855 585.385 178.038 583.257 176.404C581.167 174.732 580.122 172.414 580.122 169.45C580.122 166.372 581.129 164.016 583.143 162.382C585.195 160.71 588.121 159.874 591.921 159.874C593.403 159.874 594.885 160.045 596.367 160.387C597.849 160.691 599.122 161.109 600.186 161.641V161.071C600.186 158.145 597.792 156.682 593.004 156.682C589.66 156.682 586.601 157.328 583.827 158.62V151.723C585.043 151.153 586.639 150.697 588.615 150.355C590.591 149.975 592.643 149.785 594.771 149.785C599.863 149.785 603.701 150.811 606.285 152.863C608.907 154.877 610.218 157.708 610.218 161.356V178H600.813V175.663C599.787 176.651 598.495 177.43 596.937 178C595.379 178.57 593.593 178.855 591.579 178.855ZM594.543 172.699C595.721 172.699 596.823 172.471 597.849 172.015C598.875 171.521 599.654 170.894 600.186 170.134V167.74C598.552 166.638 596.69 166.087 594.6 166.087C593.27 166.087 592.244 166.372 591.522 166.942C590.8 167.512 590.439 168.348 590.439 169.45C590.439 170.476 590.781 171.274 591.465 171.844C592.187 172.414 593.213 172.699 594.543 172.699ZM610.21 150.64H620.242L626.455 166.543L632.611 150.64H642.643L631.186 178H621.667L610.21 150.64ZM651.376 189.286C650.16 189.286 648.887 189.191 647.557 189.001C646.227 188.849 645.239 188.621 644.593 188.317V180.85C645.695 181.306 646.949 181.534 648.355 181.534C649.609 181.534 650.578 181.249 651.262 180.679C651.984 180.147 652.554 179.292 652.972 178.114L653.656 176.29L641.8 150.64H651.832L658.957 168.424L665.683 150.64H675.715L664.429 179.254C663.099 182.674 661.389 185.201 659.299 186.835C657.247 188.469 654.606 189.286 651.376 189.286Z" fill="black"/>
<path d="M538.486 255V253.436L545.041 247.111C545.624 246.559 546.053 246.076 546.329 245.662C546.621 245.233 546.812 244.842 546.904 244.489C547.012 244.121 547.065 243.768 547.065 243.431C547.065 242.603 546.774 241.951 546.191 241.476C545.609 241.001 544.758 240.763 543.638 240.763C542.78 240.763 542.005 240.909 541.315 241.2C540.625 241.476 540.027 241.913 539.521 242.511L537.957 241.154C538.571 240.372 539.391 239.774 540.418 239.36C541.461 238.931 542.603 238.716 543.845 238.716C544.965 238.716 545.938 238.9 546.766 239.268C547.594 239.621 548.231 240.134 548.675 240.809C549.135 241.484 549.365 242.281 549.365 243.201C549.365 243.722 549.296 244.236 549.158 244.742C549.02 245.248 548.76 245.785 548.376 246.352C547.993 246.919 547.441 247.556 546.72 248.261L540.878 253.896L540.326 252.999H550.055V255H538.486ZM558.042 255.184C556.784 255.184 555.657 254.862 554.661 254.218C553.679 253.574 552.897 252.639 552.315 251.412C551.747 250.185 551.464 248.698 551.464 246.95C551.464 245.202 551.747 243.715 552.315 242.488C552.897 241.261 553.679 240.326 554.661 239.682C555.657 239.038 556.784 238.716 558.042 238.716C559.284 238.716 560.403 239.038 561.4 239.682C562.396 240.326 563.178 241.261 563.746 242.488C564.313 243.715 564.597 245.202 564.597 246.95C564.597 248.698 564.313 250.185 563.746 251.412C563.178 252.639 562.396 253.574 561.4 254.218C560.403 254.862 559.284 255.184 558.042 255.184ZM558.042 253.137C558.885 253.137 559.621 252.907 560.25 252.447C560.894 251.987 561.392 251.297 561.745 250.377C562.113 249.457 562.297 248.315 562.297 246.95C562.297 245.585 562.113 244.443 561.745 243.523C561.392 242.603 560.894 241.913 560.25 241.453C559.621 240.993 558.885 240.763 558.042 240.763C557.198 240.763 556.455 240.993 555.811 241.453C555.167 241.913 554.661 242.603 554.293 243.523C553.94 244.443 553.764 245.585 553.764 246.95C553.764 248.315 553.94 249.457 554.293 250.377C554.661 251.297 555.167 251.987 555.811 252.447C556.455 252.907 557.198 253.137 558.042 253.137ZM571.125 251.987V241.913H573.057V251.987H571.125ZM566.939 247.87V246.053H577.243V247.87H566.939ZM592.643 242.695C593.64 242.695 594.514 242.887 595.265 243.27C596.032 243.653 596.63 244.236 597.059 245.018C597.489 245.8 597.703 246.789 597.703 247.985V255H595.495V248.238C595.495 247.057 595.204 246.168 594.621 245.57C594.054 244.972 593.249 244.673 592.206 244.673C591.424 244.673 590.742 244.826 590.159 245.133C589.577 245.44 589.124 245.892 588.802 246.49C588.496 247.088 588.342 247.832 588.342 248.721V255H586.134V237.934H588.342V246.099L587.905 245.225C588.304 244.428 588.917 243.807 589.745 243.362C590.573 242.917 591.539 242.695 592.643 242.695ZM606.551 255.138C605.324 255.138 604.235 254.87 603.285 254.333C602.334 253.796 601.583 253.06 601.031 252.125C600.479 251.174 600.203 250.101 600.203 248.905C600.203 247.694 600.479 246.62 601.031 245.685C601.583 244.75 602.334 244.021 603.285 243.5C604.235 242.963 605.324 242.695 606.551 242.695C607.762 242.695 608.843 242.963 609.794 243.5C610.76 244.021 611.511 244.75 612.048 245.685C612.6 246.605 612.876 247.678 612.876 248.905C612.876 250.116 612.6 251.19 612.048 252.125C611.511 253.06 610.76 253.796 609.794 254.333C608.843 254.87 607.762 255.138 606.551 255.138ZM606.551 253.206C607.333 253.206 608.03 253.03 608.644 252.677C609.272 252.324 609.763 251.826 610.116 251.182C610.468 250.523 610.645 249.764 610.645 248.905C610.645 248.031 610.468 247.28 610.116 246.651C609.763 246.007 609.272 245.509 608.644 245.156C608.03 244.803 607.333 244.627 606.551 244.627C605.769 244.627 605.071 244.803 604.458 245.156C603.844 245.509 603.354 246.007 602.986 246.651C602.618 247.28 602.434 248.031 602.434 248.905C602.434 249.764 602.618 250.523 602.986 251.182C603.354 251.826 603.844 252.324 604.458 252.677C605.071 253.03 605.769 253.206 606.551 253.206ZM620.598 255.138C619.556 255.138 618.636 254.946 617.838 254.563C617.056 254.18 616.443 253.597 615.998 252.815C615.569 252.018 615.354 251.021 615.354 249.825V242.81H617.562V249.572C617.562 250.768 617.846 251.665 618.413 252.263C618.996 252.861 619.809 253.16 620.851 253.16C621.618 253.16 622.285 253.007 622.852 252.7C623.42 252.378 623.857 251.918 624.163 251.32C624.47 250.707 624.623 249.971 624.623 249.112V242.81H626.831V255H624.738V251.711L625.083 252.585C624.685 253.398 624.087 254.026 623.289 254.471C622.492 254.916 621.595 255.138 620.598 255.138ZM630.575 255V242.81H632.691V246.122L632.484 245.294C632.821 244.451 633.388 243.807 634.186 243.362C634.983 242.917 635.964 242.695 637.13 242.695V244.834C637.038 244.819 636.946 244.811 636.854 244.811C636.777 244.811 636.7 244.811 636.624 244.811C635.443 244.811 634.508 245.164 633.818 245.869C633.128 246.574 632.783 247.594 632.783 248.928V255H630.575ZM643.022 255.138C642.01 255.138 641.044 255 640.124 254.724C639.219 254.448 638.506 254.111 637.985 253.712L638.905 251.964C639.426 252.317 640.07 252.616 640.837 252.861C641.603 253.106 642.385 253.229 643.183 253.229C644.21 253.229 644.946 253.083 645.391 252.792C645.851 252.501 646.081 252.094 646.081 251.573C646.081 251.19 645.943 250.891 645.667 250.676C645.391 250.461 645.023 250.3 644.563 250.193C644.118 250.086 643.62 249.994 643.068 249.917C642.516 249.825 641.964 249.718 641.412 249.595C640.86 249.457 640.354 249.273 639.894 249.043C639.434 248.798 639.066 248.468 638.79 248.054C638.514 247.625 638.376 247.057 638.376 246.352C638.376 245.616 638.583 244.972 638.997 244.42C639.411 243.868 639.993 243.446 640.745 243.155C641.511 242.848 642.416 242.695 643.459 242.695C644.256 242.695 645.061 242.795 645.874 242.994C646.702 243.178 647.376 243.446 647.898 243.799L646.955 245.547C646.403 245.179 645.828 244.926 645.23 244.788C644.632 244.65 644.034 244.581 643.436 244.581C642.47 244.581 641.749 244.742 641.274 245.064C640.798 245.371 640.561 245.769 640.561 246.26C640.561 246.674 640.699 246.996 640.975 247.226C641.266 247.441 641.634 247.609 642.079 247.732C642.539 247.855 643.045 247.962 643.597 248.054C644.149 248.131 644.701 248.238 645.253 248.376C645.805 248.499 646.303 248.675 646.748 248.905C647.208 249.135 647.576 249.457 647.852 249.871C648.143 250.285 648.289 250.837 648.289 251.527C648.289 252.263 648.074 252.899 647.645 253.436C647.215 253.973 646.61 254.394 645.828 254.701C645.046 254.992 644.11 255.138 643.022 255.138ZM661.526 255.138C660.299 255.138 659.211 254.87 658.26 254.333C657.309 253.796 656.558 253.06 656.006 252.125C655.454 251.174 655.178 250.101 655.178 248.905C655.178 247.694 655.454 246.62 656.006 245.685C656.558 244.75 657.309 244.021 658.26 243.5C659.211 242.963 660.299 242.695 661.526 242.695C662.737 242.695 663.818 242.963 664.769 243.5C665.735 244.021 666.486 244.75 667.023 245.685C667.575 246.605 667.851 247.678 667.851 248.905C667.851 250.116 667.575 251.19 667.023 252.125C666.486 253.06 665.735 253.796 664.769 254.333C663.818 254.87 662.737 255.138 661.526 255.138ZM661.526 253.206C662.308 253.206 663.006 253.03 663.619 252.677C664.248 252.324 664.738 251.826 665.091 251.182C665.444 250.523 665.62 249.764 665.62 248.905C665.62 248.031 665.444 247.28 665.091 246.651C664.738 246.007 664.248 245.509 663.619 245.156C663.006 244.803 662.308 244.627 661.526 244.627C660.744 244.627 660.046 244.803 659.433 245.156C658.82 245.509 658.329 246.007 657.961 246.651C657.593 247.28 657.409 248.031 657.409 248.905C657.409 249.764 657.593 250.523 657.961 251.182C658.329 251.826 658.82 252.324 659.433 252.677C660.046 253.03 660.744 253.206 661.526 253.206ZM670.767 255V241.729C670.767 240.533 671.112 239.582 671.802 238.877C672.507 238.156 673.504 237.796 674.792 237.796C675.267 237.796 675.719 237.857 676.149 237.98C676.593 238.087 676.969 238.264 677.276 238.509L676.609 240.188C676.379 240.004 676.118 239.866 675.827 239.774C675.535 239.667 675.229 239.613 674.907 239.613C674.263 239.613 673.772 239.797 673.435 240.165C673.097 240.518 672.929 241.047 672.929 241.752V243.385L672.975 244.397V255H670.767ZM668.697 244.627V242.81H676.471V244.627H668.697ZM483.097 286.138C482.085 286.138 481.157 285.908 480.314 285.448C479.486 284.973 478.819 284.275 478.313 283.355C477.822 282.435 477.577 281.285 477.577 279.905C477.577 278.525 477.814 277.375 478.29 276.455C478.78 275.535 479.44 274.845 480.268 274.385C481.111 273.925 482.054 273.695 483.097 273.695C484.293 273.695 485.351 273.956 486.271 274.477C487.191 274.998 487.919 275.727 488.456 276.662C488.992 277.582 489.261 278.663 489.261 279.905C489.261 281.147 488.992 282.236 488.456 283.171C487.919 284.106 487.191 284.835 486.271 285.356C485.351 285.877 484.293 286.138 483.097 286.138ZM476.634 290.462V273.81H478.75V277.099L478.612 279.928L478.842 282.757V290.462H476.634ZM482.913 284.206C483.695 284.206 484.392 284.03 485.006 283.677C485.634 283.324 486.125 282.826 486.478 282.182C486.846 281.523 487.03 280.764 487.03 279.905C487.03 279.031 486.846 278.28 486.478 277.651C486.125 277.007 485.634 276.509 485.006 276.156C484.392 275.803 483.695 275.627 482.913 275.627C482.146 275.627 481.448 275.803 480.82 276.156C480.206 276.509 479.716 277.007 479.348 277.651C478.995 278.28 478.819 279.031 478.819 279.905C478.819 280.764 478.995 281.523 479.348 282.182C479.716 282.826 480.206 283.324 480.82 283.677C481.448 284.03 482.146 284.206 482.913 284.206ZM497.072 286.138C495.846 286.138 494.757 285.87 493.806 285.333C492.856 284.796 492.104 284.06 491.552 283.125C491 282.174 490.724 281.101 490.724 279.905C490.724 278.694 491 277.62 491.552 276.685C492.104 275.75 492.856 275.021 493.806 274.5C494.757 273.963 495.846 273.695 497.072 273.695C498.284 273.695 499.365 273.963 500.315 274.5C501.281 275.021 502.033 275.75 502.569 276.685C503.121 277.605 503.397 278.678 503.397 279.905C503.397 281.116 503.121 282.19 502.569 283.125C502.033 284.06 501.281 284.796 500.315 285.333C499.365 285.87 498.284 286.138 497.072 286.138ZM497.072 284.206C497.854 284.206 498.552 284.03 499.165 283.677C499.794 283.324 500.285 282.826 500.637 282.182C500.99 281.523 501.166 280.764 501.166 279.905C501.166 279.031 500.99 278.28 500.637 277.651C500.285 277.007 499.794 276.509 499.165 276.156C498.552 275.803 497.854 275.627 497.072 275.627C496.29 275.627 495.593 275.803 494.979 276.156C494.366 276.509 493.875 277.007 493.507 277.651C493.139 278.28 492.955 279.031 492.955 279.905C492.955 280.764 493.139 281.523 493.507 282.182C493.875 282.826 494.366 283.324 494.979 283.677C495.593 284.03 496.29 284.206 497.072 284.206ZM505.991 286V273.81H508.107V277.122L507.9 276.294C508.237 275.451 508.805 274.807 509.602 274.362C510.399 273.917 511.381 273.695 512.546 273.695V275.834C512.454 275.819 512.362 275.811 512.27 275.811C512.193 275.811 512.117 275.811 512.04 275.811C510.859 275.811 509.924 276.164 509.234 276.869C508.544 277.574 508.199 278.594 508.199 279.928V286H505.991ZM519.488 286.138C518.261 286.138 517.31 285.808 516.636 285.149C515.961 284.49 515.624 283.547 515.624 282.32V271.142H517.832V282.228C517.832 282.887 517.993 283.393 518.315 283.746C518.652 284.099 519.127 284.275 519.741 284.275C520.431 284.275 521.006 284.083 521.466 283.7L522.156 285.287C521.818 285.578 521.412 285.793 520.937 285.931C520.477 286.069 519.994 286.138 519.488 286.138ZM513.554 275.627V273.81H521.328V275.627H513.554ZM531.932 286V283.424L531.817 282.941V278.548C531.817 277.613 531.541 276.892 530.989 276.386C530.452 275.865 529.64 275.604 528.551 275.604C527.83 275.604 527.125 275.727 526.435 275.972C525.745 276.202 525.162 276.516 524.687 276.915L523.767 275.259C524.396 274.753 525.147 274.37 526.021 274.109C526.91 273.833 527.838 273.695 528.804 273.695C530.475 273.695 531.763 274.101 532.668 274.914C533.573 275.727 534.025 276.969 534.025 278.64V286H531.932ZM527.93 286.138C527.025 286.138 526.228 285.985 525.538 285.678C524.863 285.371 524.342 284.95 523.974 284.413C523.606 283.861 523.422 283.24 523.422 282.55C523.422 281.891 523.575 281.293 523.882 280.756C524.204 280.219 524.718 279.79 525.423 279.468C526.144 279.146 527.11 278.985 528.321 278.985H532.185V280.572H528.413C527.309 280.572 526.565 280.756 526.182 281.124C525.799 281.492 525.607 281.937 525.607 282.458C525.607 283.056 525.845 283.539 526.32 283.907C526.795 284.26 527.455 284.436 528.298 284.436C529.126 284.436 529.847 284.252 530.46 283.884C531.089 283.516 531.541 282.979 531.817 282.274L532.254 283.792C531.963 284.513 531.449 285.088 530.713 285.517C529.977 285.931 529.049 286.138 527.93 286.138ZM544.114 286.138C543.071 286.138 542.128 285.908 541.285 285.448C540.457 284.973 539.798 284.275 539.307 283.355C538.832 282.435 538.594 281.285 538.594 279.905C538.594 278.525 538.839 277.375 539.33 276.455C539.836 275.535 540.503 274.845 541.331 274.385C542.174 273.925 543.102 273.695 544.114 273.695C545.31 273.695 546.368 273.956 547.288 274.477C548.208 274.998 548.936 275.727 549.473 276.662C550.01 277.582 550.278 278.663 550.278 279.905C550.278 281.147 550.01 282.236 549.473 283.171C548.936 284.106 548.208 284.835 547.288 285.356C546.368 285.877 545.31 286.138 544.114 286.138ZM537.651 286V268.934H539.859V277.053L539.629 279.882L539.767 282.711V286H537.651ZM543.93 284.206C544.712 284.206 545.41 284.03 546.023 283.677C546.652 283.324 547.142 282.826 547.495 282.182C547.863 281.523 548.047 280.764 548.047 279.905C548.047 279.031 547.863 278.28 547.495 277.651C547.142 277.007 546.652 276.509 546.023 276.156C545.41 275.803 544.712 275.627 543.93 275.627C543.163 275.627 542.466 275.803 541.837 276.156C541.224 276.509 540.733 277.007 540.365 277.651C540.012 278.28 539.836 279.031 539.836 279.905C539.836 280.764 540.012 281.523 540.365 282.182C540.733 282.826 541.224 283.324 541.837 283.677C542.466 284.03 543.163 284.206 543.93 284.206ZM552.869 286V268.934H555.077V286H552.869ZM564.261 286.138C562.957 286.138 561.807 285.87 560.811 285.333C559.829 284.796 559.063 284.06 558.511 283.125C557.974 282.19 557.706 281.116 557.706 279.905C557.706 278.694 557.966 277.62 558.488 276.685C559.024 275.75 559.753 275.021 560.673 274.5C561.608 273.963 562.658 273.695 563.824 273.695C565.004 273.695 566.047 273.956 566.952 274.477C567.856 274.998 568.562 275.734 569.068 276.685C569.589 277.62 569.85 278.717 569.85 279.974C569.85 280.066 569.842 280.173 569.827 280.296C569.827 280.419 569.819 280.534 569.804 280.641H559.431V279.054H568.654L567.757 279.606C567.772 278.824 567.611 278.126 567.274 277.513C566.936 276.9 566.469 276.424 565.871 276.087C565.288 275.734 564.606 275.558 563.824 275.558C563.057 275.558 562.375 275.734 561.777 276.087C561.179 276.424 560.711 276.907 560.374 277.536C560.036 278.149 559.868 278.855 559.868 279.652V280.02C559.868 280.833 560.052 281.561 560.42 282.205C560.803 282.834 561.332 283.324 562.007 283.677C562.681 284.03 563.456 284.206 564.33 284.206C565.05 284.206 565.702 284.083 566.285 283.838C566.883 283.593 567.404 283.225 567.849 282.734L569.068 284.16C568.516 284.804 567.826 285.295 566.998 285.632C566.185 285.969 565.273 286.138 564.261 286.138ZM584.635 286.138C583.623 286.138 582.696 285.908 581.852 285.448C581.024 284.973 580.357 284.275 579.851 283.355C579.361 282.435 579.115 281.285 579.115 279.905C579.115 278.525 579.353 277.375 579.828 276.455C580.319 275.535 580.978 274.845 581.806 274.385C582.65 273.925 583.593 273.695 584.635 273.695C585.831 273.695 586.889 273.956 587.809 274.477C588.729 274.998 589.458 275.727 589.994 276.662C590.531 277.582 590.799 278.663 590.799 279.905C590.799 281.147 590.531 282.236 589.994 283.171C589.458 284.106 588.729 284.835 587.809 285.356C586.889 285.877 585.831 286.138 584.635 286.138ZM578.172 290.462V273.81H580.288V277.099L580.15 279.928L580.38 282.757V290.462H578.172ZM584.451 284.206C585.233 284.206 585.931 284.03 586.544 283.677C587.173 283.324 587.664 282.826 588.016 282.182C588.384 281.523 588.568 280.764 588.568 279.905C588.568 279.031 588.384 278.28 588.016 277.651C587.664 277.007 587.173 276.509 586.544 276.156C585.931 275.803 585.233 275.627 584.451 275.627C583.685 275.627 582.987 275.803 582.358 276.156C581.745 276.509 581.254 277.007 580.886 277.651C580.534 278.28 580.357 279.031 580.357 279.905C580.357 280.764 580.534 281.523 580.886 282.182C581.254 282.826 581.745 283.324 582.358 283.677C582.987 284.03 583.685 284.206 584.451 284.206ZM593.39 286V268.934H595.598V286H593.39ZM606.921 286V283.424L606.806 282.941V278.548C606.806 277.613 606.53 276.892 605.978 276.386C605.441 275.865 604.629 275.604 603.54 275.604C602.819 275.604 602.114 275.727 601.424 275.972C600.734 276.202 600.151 276.516 599.676 276.915L598.756 275.259C599.385 274.753 600.136 274.37 601.01 274.109C601.899 273.833 602.827 273.695 603.793 273.695C605.464 273.695 606.752 274.101 607.657 274.914C608.562 275.727 609.014 276.969 609.014 278.64V286H606.921ZM602.919 286.138C602.014 286.138 601.217 285.985 600.527 285.678C599.852 285.371 599.331 284.95 598.963 284.413C598.595 283.861 598.411 283.24 598.411 282.55C598.411 281.891 598.564 281.293 598.871 280.756C599.193 280.219 599.707 279.79 600.412 279.468C601.133 279.146 602.099 278.985 603.31 278.985H607.174V280.572H603.402C602.298 280.572 601.554 280.756 601.171 281.124C600.788 281.492 600.596 281.937 600.596 282.458C600.596 283.056 600.834 283.539 601.309 283.907C601.784 284.26 602.444 284.436 603.287 284.436C604.115 284.436 604.836 284.252 605.449 283.884C606.078 283.516 606.53 282.979 606.806 282.274L607.243 283.792C606.952 284.513 606.438 285.088 605.702 285.517C604.966 285.931 604.038 286.138 602.919 286.138ZM612.944 290.6C612.362 290.6 611.794 290.5 611.242 290.301C610.69 290.117 610.215 289.841 609.816 289.473L610.759 287.817C611.066 288.108 611.403 288.331 611.771 288.484C612.139 288.637 612.53 288.714 612.944 288.714C613.481 288.714 613.926 288.576 614.278 288.3C614.631 288.024 614.961 287.533 615.267 286.828L616.026 285.149L616.256 284.873L621.04 273.81H623.202L617.291 287.219C616.939 288.078 616.54 288.752 616.095 289.243C615.666 289.734 615.191 290.079 614.669 290.278C614.148 290.493 613.573 290.6 612.944 290.6ZM615.842 286.391L610.276 273.81H612.576L617.314 284.666L615.842 286.391ZM629.326 286.138C628.099 286.138 627.149 285.808 626.474 285.149C625.799 284.49 625.462 283.547 625.462 282.32V271.142H627.67V282.228C627.67 282.887 627.831 283.393 628.153 283.746C628.49 284.099 628.966 284.275 629.579 284.275C630.269 284.275 630.844 284.083 631.304 283.7L631.994 285.287C631.657 285.578 631.25 285.793 630.775 285.931C630.315 286.069 629.832 286.138 629.326 286.138ZM623.392 275.627V273.81H631.166V275.627H623.392ZM634.203 286V273.81H636.411V286H634.203ZM635.307 271.464C634.878 271.464 634.518 271.326 634.226 271.05C633.95 270.774 633.812 270.437 633.812 270.038C633.812 269.624 633.95 269.279 634.226 269.003C634.518 268.727 634.878 268.589 635.307 268.589C635.737 268.589 636.089 268.727 636.365 269.003C636.657 269.264 636.802 269.593 636.802 269.992C636.802 270.406 636.664 270.759 636.388 271.05C636.112 271.326 635.752 271.464 635.307 271.464ZM655.416 273.695C656.398 273.695 657.264 273.887 658.015 274.27C658.767 274.653 659.349 275.236 659.763 276.018C660.193 276.8 660.407 277.789 660.407 278.985V286H658.199V279.238C658.199 278.057 657.923 277.168 657.371 276.57C656.819 275.972 656.045 275.673 655.048 275.673C654.312 275.673 653.668 275.826 653.116 276.133C652.564 276.44 652.135 276.892 651.828 277.49C651.537 278.088 651.391 278.832 651.391 279.721V286H649.183V279.238C649.183 278.057 648.907 277.168 648.355 276.57C647.819 275.972 647.044 275.673 646.032 275.673C645.312 275.673 644.675 275.826 644.123 276.133C643.571 276.44 643.142 276.892 642.835 277.49C642.529 278.088 642.375 278.832 642.375 279.721V286H640.167V273.81H642.283V277.053L641.938 276.225C642.322 275.428 642.912 274.807 643.709 274.362C644.507 273.917 645.434 273.695 646.492 273.695C647.658 273.695 648.662 273.986 649.505 274.569C650.349 275.136 650.901 276.003 651.161 277.168L650.264 276.8C650.632 275.865 651.276 275.113 652.196 274.546C653.116 273.979 654.19 273.695 655.416 273.695ZM669.438 286.138C668.135 286.138 666.985 285.87 665.988 285.333C665.007 284.796 664.24 284.06 663.688 283.125C663.151 282.19 662.883 281.116 662.883 279.905C662.883 278.694 663.144 277.62 663.665 276.685C664.202 275.75 664.93 275.021 665.85 274.5C666.785 273.963 667.836 273.695 669.001 273.695C670.182 273.695 671.224 273.956 672.129 274.477C673.034 274.998 673.739 275.734 674.245 276.685C674.766 277.62 675.027 278.717 675.027 279.974C675.027 280.066 675.019 280.173 675.004 280.296C675.004 280.419 674.996 280.534 674.981 280.641H664.608V279.054H673.831L672.934 279.606C672.949 278.824 672.788 278.126 672.451 277.513C672.114 276.9 671.646 276.424 671.048 276.087C670.465 275.734 669.783 275.558 669.001 275.558C668.234 275.558 667.552 275.734 666.954 276.087C666.356 276.424 665.888 276.907 665.551 277.536C665.214 278.149 665.045 278.855 665.045 279.652V280.02C665.045 280.833 665.229 281.561 665.597 282.205C665.98 282.834 666.509 283.324 667.184 283.677C667.859 284.03 668.633 284.206 669.507 284.206C670.228 284.206 670.879 284.083 671.462 283.838C672.06 283.593 672.581 283.225 673.026 282.734L674.245 284.16C673.693 284.804 673.003 285.295 672.175 285.632C671.362 285.969 670.45 286.138 669.438 286.138Z" fill="black"/>
</svg>
